<svg width="21" height="20" viewBox="0 0 21 20" fill="none" xmlns="http://www.w3.org/2000/svg">
<path fill-rule="evenodd" clip-rule="evenodd" d="M2.74112 2.24112C2.25296 2.72927 2.25296 3.52073 2.74112 4.00888L8.73223 10L2.74112 15.9911C2.25296 16.4793 2.25296 17.2707 2.74112 17.7589C3.22927 18.247 4.02073 18.247 4.50888 17.7589L10.5 11.7678L16.4911 17.7589C16.9793 18.247 17.7707 18.247 18.2589 17.7589C18.747 17.2707 18.747 16.4793 18.2589 15.9911L12.2678 10L18.2589 4.00888C18.747 3.52073 18.747 2.72927 18.2589 2.24112C17.7707 1.75296 16.9793 1.75296 16.4911 2.24112L10.5 8.23223L4.50888 2.24112C4.02073 1.75296 3.22927 1.75296 2.74112 2.24112Z" fill="black"/>
</svg>
