<svg width="16" height="14" viewBox="0 0 16 14" fill="none" xmlns="http://www.w3.org/2000/svg">
<path fill-rule="evenodd" clip-rule="evenodd" d="M0.750541 0.719426C0.857864 0.483983 1.08968 0.333344 1.34468 0.333344H14.4441C14.6991 0.333344 14.9309 0.483983 15.0382 0.719426C15.1456 0.954868 15.1089 1.23231 14.9442 1.43049L9.8593 7.55078V13C9.8593 13.2311 9.74176 13.4456 9.54867 13.5671C9.35557 13.6886 9.11445 13.6996 8.91142 13.5963L6.29153 12.263C6.06964 12.15 5.92947 11.9192 5.92947 11.6667V7.55078L0.844561 1.43049C0.679903 1.23231 0.643219 0.954868 0.750541 0.719426ZM2.75634 1.66668L7.08456 6.87619C7.18455 6.99654 7.23941 7.14906 7.23941 7.30668V11.2547L8.54936 11.9213V7.30668C8.54936 7.14906 8.60422 6.99654 8.70421 6.87619L13.0324 1.66668H2.75634Z" fill="#7B7B7B"/>
</svg>
