<svg width="16" height="16" viewBox="0 0 16 16" fill="none" xmlns="http://www.w3.org/2000/svg">
<path fill-rule="evenodd" clip-rule="evenodd" d="M1.33331 7.99999C1.33331 7.63181 1.63179 7.33333 1.99998 7.33333H14C14.3682 7.33333 14.6666 7.63181 14.6666 7.99999C14.6666 8.36818 14.3682 8.66666 14 8.66666H1.99998C1.63179 8.66666 1.33331 8.36818 1.33331 7.99999Z" fill="white"/>
<path fill-rule="evenodd" clip-rule="evenodd" d="M1.33331 3.99999C1.33331 3.63181 1.63179 3.33333 1.99998 3.33333H14C14.3682 3.33333 14.6666 3.63181 14.6666 3.99999C14.6666 4.36818 14.3682 4.66666 14 4.66666H1.99998C1.63179 4.66666 1.33331 4.36818 1.33331 3.99999Z" fill="white"/>
<path fill-rule="evenodd" clip-rule="evenodd" d="M1.33331 12C1.33331 11.6318 1.63179 11.3333 1.99998 11.3333H14C14.3682 11.3333 14.6666 11.6318 14.6666 12C14.6666 12.3682 14.3682 12.6667 14 12.6667H1.99998C1.63179 12.6667 1.33331 12.3682 1.33331 12Z" fill="white"/>
</svg>
