<svg width="16" height="17" viewBox="0 0 16 17" fill="none" xmlns="http://www.w3.org/2000/svg">
<path fill-rule="evenodd" clip-rule="evenodd" d="M7.3335 3.16671C4.75617 3.16671 2.66683 5.25605 2.66683 7.83337C2.66683 10.4107 4.75617 12.5 7.3335 12.5C9.91083 12.5 12.0002 10.4107 12.0002 7.83337C12.0002 5.25605 9.91083 3.16671 7.3335 3.16671ZM1.3335 7.83337C1.3335 4.51967 4.01979 1.83337 7.3335 1.83337C10.6472 1.83337 13.3335 4.51967 13.3335 7.83337C13.3335 11.1471 10.6472 13.8334 7.3335 13.8334C4.01979 13.8334 1.3335 11.1471 1.3335 7.83337Z" fill="#B2DB11"/>
<path fill-rule="evenodd" clip-rule="evenodd" d="M10.6284 11.1286C10.8887 10.8683 11.3108 10.8683 11.5712 11.1286L14.4712 14.0286C14.7315 14.289 14.7315 14.7111 14.4712 14.9714C14.2108 15.2318 13.7887 15.2318 13.5284 14.9714L10.6284 12.0714C10.368 11.8111 10.368 11.389 10.6284 11.1286Z" fill="#B2DB11"/>
</svg>
