<svg xmlns="http://www.w3.org/2000/svg" viewBox="0 0 115 115"><filter id="b"><feGaussianBlur stdDeviation="12" /></filter><path fill="#bc9e8d" d="M0 0h115v115H0z"/><g filter="url(#b)" transform="translate(.5 .5)" fill-opacity=".5"><ellipse fill="#8b312b" cx="61" cy="60" rx="41" ry="43"/><ellipse fill="#fff" cx="59" rx="114" ry="14"/><ellipse fill="#fff" cx="40" cy="109" rx="114" ry="8"/><path fill="#b20000" d="M39.8 27.9l42-.8.4 21-42 .8z"/><ellipse fill="#0267ff" cx="58" cy="80" rx="47" ry="5"/><ellipse fill="#fff" cx="62" cy="5" rx="114" ry="9"/><ellipse fill="#fff" cx="56" cy="112" rx="114" ry="9"/><path fill="#b3a265" d="M78 15h34v39H78z"/><path fill="#7f5e00" d="M50.6 101.9L48.8 89l34.6-4.9L85.2 97z"/><ellipse fill="#7aae78" rx="1" ry="1" transform="rotate(-10.4 149 -196.8) scale(32.82186 6.89378)"/><path fill="#bed4bf" d="M14.6 77.3l-.1-5 87-1.6v5z"/><path fill="#ecfcf7" d="M1 9l7 121-24-44z"/><path fill="#c33934" d="M17 55h81v15H17z"/><ellipse fill="#a90002" cx="60" cy="39" rx="24" ry="11"/><ellipse fill="#fff" cx="59" cy="6" rx="114" ry="7"/><ellipse fill="#c6b08e" cx="43" cy="53" rx="17" ry="6"/><path fill="#d1cfa8" d="M81 53l11-15-34 17z"/><ellipse fill="#b9ac73" cx="64" cy="86" rx="61" ry="4"/><ellipse fill="#fff" cx="82" cy="109" rx="114" ry="6"/><path fill="#865300" d="M37 88h46v11H37z"/><ellipse fill="#979768" rx="1" ry="1" transform="matrix(14.73862 1.90793 -2.54994 19.69815 20.1 34.7)"/><path fill="#c5bba3" d="M31 24h5v44h-5z"/></g></svg>