<svg xmlns="http://www.w3.org/2000/svg" viewBox="0 0 1191 320"><filter id="b"><feGaussianBlur stdDeviation="12" /></filter><path fill="#8e6b50" d="M0 0h1191v316H0z"/><g filter="url(#b)" transform="translate(2.3 2.3) scale(4.65234)" fill-opacity=".5"><ellipse fill="#000400" cx="116" cy="22" rx="42" ry="20"/><ellipse fill="#f6dbc0" cx="243" cy="35" rx="41" ry="41"/><ellipse fill="#dfac77" rx="1" ry="1" transform="matrix(6.34439 34.54168 -51.5755 9.47305 35.8 0)"/><path fill="#731519" d="M8 39l194-4-58 38z"/><ellipse fill="#2f5900" cx="185" cy="8" rx="37" ry="12"/><ellipse fill="#f3cdb0" cx="22" cy="67" rx="26" ry="16"/><path fill="#ddfbff" d="M181 51h13v17h-13z"/><ellipse fill="#fbf8ca" cx="220" cy="26" rx="27" ry="7"/><ellipse fill="#df5955" rx="1" ry="1" transform="matrix(14.82924 -10.62178 18.67008 26.0656 146.3 67.4)"/><ellipse fill="#172a16" cx="105" cy="26" rx="27" ry="26"/><path fill="#ffffda" d="M240 17.2l-21-6.8 9-27.6 21 6.8z"/><path fill="#420200" d="M212 7l21 12-7 5z"/><path fill="#1d2900" d="M182 1h12v40h-12z"/><ellipse fill="#850a26" rx="1" ry="1" transform="matrix(8.23581 -4.14014 12.01716 23.90526 45 38.5)"/><ellipse fill="#ffa597" cx="71" cy="60" rx="9" ry="9"/><ellipse fill="#589b2b" cx="131" cy="7" rx="20" ry="10"/><path fill="#dedccc" d="M99.5 39.6L92.2 34l-2.5 3.5 3.7 7.6z"/><ellipse fill="#e3fbff" rx="1" ry="1" transform="matrix(3.50739 -10.34035 5.02212 1.70348 241.3 58.2)"/><path fill="#390000" d="M0 11l8-8 4 16z"/><path fill="#0e1201" d="M172 50l-23-16 41 7z"/><path fill="#98582e" d="M255 53l5-17-41-2z"/><path fill="#974c74" d="M190.5 70l10-27.3 31 11.3-10 27.3z"/></g></svg>