<svg xmlns="http://www.w3.org/2000/svg" viewBox="0 0 1191 320"><filter id="b"><feGaussianBlur stdDeviation="12" /></filter><path fill="#8e6b50" d="M0 0h1191v316H0z"/><g filter="url(#b)" transform="translate(2.3 2.3) scale(4.65234)" fill-opacity=".5"><ellipse fill="#000800" rx="1" ry="1" transform="rotate(79.2 42 79.1) scale(25.64314 33.87762)"/><ellipse fill="#f5d9be" rx="1" ry="1" transform="matrix(-40.82762 -29.8813 25.98396 -35.50258 250.8 42.2)"/><ellipse fill="#453b0b" cx="164" cy="22" rx="32" ry="32"/><ellipse fill="#e4b27d" cx="45" rx="35" ry="35"/><path fill="#fcdac0" d="M29 42.7L66 83l-82-18.4 38.7-5z"/><path fill="#6a0007" d="M60.1 28.2l13.1 23.6-25.3 14-13.1-23.6z"/><ellipse fill="#331a1b" rx="1" ry="1" transform="matrix(3.66748 35.95949 -20.63314 2.10436 102.4 46.5)"/><path fill="#275700" d="M184-16l-7 29 54 5z"/><path fill="#d5f2ff" d="M180 50h14v18h-14z"/><ellipse fill="#dd2639" rx="1" ry="1" transform="matrix(12.26297 -6.63056 11.46417 21.20253 147.2 59.6)"/><path fill="#ffffc7" d="M221.5 33.5l-25.4-1.3V20.8l25.3-6.4z"/><path fill="#ffb479" d="M160 22h19v14h-19z"/><ellipse fill="#ffffd7" cx="232" cy="6" rx="12" ry="10"/><ellipse fill="#86ce56" cx="132" rx="19" ry="9"/><path fill="#8c1a2b" d="M51 35L34 12 22 51z"/><ellipse fill="#020" cx="131" cy="26" rx="14" ry="14"/><ellipse fill="#e6be74" rx="1" ry="1" transform="matrix(5.6927 -8.69766 9.31593 6.09736 20.3 29.3)"/><ellipse fill="#fffff2" cx="237" cy="28" rx="8" ry="8"/><path fill="#ffa498" d="M66.6 51.7l13.6 3.4-6.8 27.2-13.6-3.4z"/><path fill="#d7f3ff" d="M240 73l-11-29 19 6z"/><path fill="#863a63" d="M195 48h31v16h-31z"/><path fill="#996138" d="M272.7 51l-51.3-8.1 1.9-11.9 51.3 8.1z"/></g></svg>