<svg xmlns="http://www.w3.org/2000/svg" viewBox="0 0 1191 320"><filter id="b"><feGaussianBlur stdDeviation="12" /></filter><path fill="#8e6b50" d="M0 0h1191v316H0z"/><g filter="url(#b)" transform="translate(2.3 2.3) scale(4.65234)" fill-opacity=".5"><ellipse fill="#000c00" cx="111" cy="24" rx="33" ry="33"/><ellipse fill="#f6dbc0" cx="244" cy="36" rx="42" ry="42"/><ellipse fill="#433c0a" rx="1" ry="1" transform="rotate(-167.2 86.8 -1.6) scale(27.33763 40.1981)"/><ellipse fill="#e1b079" cx="29" rx="57" ry="33"/><ellipse fill="#f8dec5" rx="1" ry="1" transform="matrix(8.69421 -18.26753 12.84322 6.11258 28.4 67.7)"/><path fill="#7f071f" d="M97 55L28 11l14 46z"/><path fill="#ffffdf" d="M242.6 33.9L194.1 27l1.3-8.9 48.5 6.9z"/><path fill="#c6383b" d="M163 65.2L116.2 76 109 44.8 155.8 34z"/><ellipse fill="#d7f2ff" cx="186" cy="62" rx="8" ry="13"/><ellipse fill="#ffb27a" cx="169" cy="28" rx="11" ry="9"/><ellipse fill="#041c01" cx="119" cy="25" rx="30" ry="14"/><path fill="#334800" d="M220 6l12 19-51-26z"/><path fill="#ffffde" d="M247.1-11.3l-8 27.9-18.2-5.3 8-27.9z"/><path fill="#fff9e2" d="M73 51l-9 4 16 10z"/><path fill="#83cb47" d="M116.3 13.2l-4.8-19.4 28.2-7 4.8 19.4z"/><path fill="#553225" d="M125.1 36.7l-3.4 32.9-40.8-4.3 3.4-32.9z"/><ellipse fill="#97436d" cx="212" cy="67" rx="19" ry="21"/><path fill="#230000" d="M10 15l-9 1-1-9 9-1z"/><path fill="#c2d2df" d="M248.4 52.6l-5.1 16.7L208 44.6l6.7-8.4z"/><path fill="#d9ab8c" d="M-16 69l8-24 75 25z"/><path fill="#2e0b0d" d="M184.5 32.8l18.9 6L167.8 53l-5-10.8z"/><path fill="#ecf8e7" d="M96 44l2-7-8-3z"/></g></svg>