<svg xmlns="http://www.w3.org/2000/svg" viewBox="0 0 581 420"><filter id="b"><feGaussianBlur stdDeviation="12" /></filter><path fill="#e1c268" d="M0 0h581v419H0z"/><g filter="url(#b)" transform="translate(1.1 1.1) scale(2.26953)" fill-opacity=".5"><ellipse fill="#8e4400" cx="162" cy="120" rx="43" ry="83"/><ellipse fill="#ffb" cy="50" rx="72" ry="72"/><path fill="#d37d10" d="M131.2 32.7l46 65.5-84.4 59.1-46-65.5z"/><ellipse fill="#ffffa1" cx="220" cy="39" rx="50" ry="50"/><ellipse fill="#002e00" rx="1" ry="1" transform="rotate(153.5 75.7 102) scale(24.2529 13.2612)"/><ellipse fill="#ffffad" rx="1" ry="1" transform="rotate(18.7 -445.3 130.8) scale(29.37121 75.18037)"/><ellipse fill="#ffff98" cx="242" cy="120" rx="32" ry="133"/><ellipse fill="#ebc3c5" rx="1" ry="1" transform="rotate(-26.2 375 -261.6) scale(16.06683 28.74704)"/><ellipse fill="#ffc100" rx="1" ry="1" transform="rotate(65.3 5.3 158) scale(19.19127 51.61286)"/><ellipse fill="#ffff9d" cx="35" rx="195" ry="34"/><path fill="#014a10" d="M146.5 198.8l-8.9-20 43.9-19.6 8.9 20z"/><path fill="#191c14" d="M138 22l20 45 18-27z"/><path fill="#1b2000" d="M103.7 89.8l-17 6.2-20.9-18.7 4-9z"/><path fill="#560026" d="M164 92l53 63-71-47z"/><path fill="#cc7779" d="M99 91L65 45l94-26z"/><path fill="#d00000" d="M98 154l15-43-39 56z"/><path fill="#903b11" d="M205.7 111l3.7-42.9-18.5 16-26.6 74.8z"/><ellipse fill="#d0ceeb" rx="1" ry="1" transform="rotate(50.3 -125.7 213.3) scale(24.30288 12.19722)"/><ellipse fill="#9ed900" cx="69" cy="104" rx="17" ry="20"/><ellipse fill="#cf1f03" rx="1" ry="1" transform="matrix(11.42189 4.91856 -2.90741 6.7516 55.8 165.5)"/><path fill="#644715" d="M70 34h17v23H70z"/><path fill="#fff996" d="M76.7 122l13.4-22.3 17.2 10.3-13.4 22.3z"/></g></svg>