<svg xmlns="http://www.w3.org/2000/svg" viewBox="0 0 581 420"><filter id="b"><feGaussianBlur stdDeviation="12" /></filter><path fill="#e1c268" d="M0 0h581v419H0z"/><g filter="url(#b)" transform="translate(1.1 1.1) scale(2.26953)" fill-opacity=".5"><ellipse fill="#8d4200" cx="161" cy="121" rx="42" ry="84"/><ellipse fill="#ffffbc" cy="52" rx="71" ry="71"/><ellipse fill="#d88621" cx="120" cy="100" rx="65" ry="54"/><ellipse fill="#003e00" rx="1" ry="1" transform="matrix(7.53965 12.11295 -38.719 24.10046 172.5 173.4)"/><ellipse fill="#ffffa0" rx="1" ry="1" transform="matrix(31.125 -17.75339 73.45477 128.77993 209.5 40.7)"/><ellipse fill="#ffff9f" rx="1" ry="1" transform="rotate(103.9 -26.5 58.8) scale(255 33.59125)"/><ellipse fill="#e7cace" rx="1" ry="1" transform="rotate(156.3 62.6 85) scale(14.94452 29.08445)"/><path fill="#000415" d="M175.4 54.6L158 62.1l-11.3-26.7 17.5-7.5z"/><path fill="#091500" d="M72.2 69.7l27.9 19.5-6.3 9-27.9-19.4z"/><path fill="#ffa204" d="M86 166l30-100 84-10z"/><path fill="#55032b" d="M178.4 106.3L151 88l27.7 76.3 26.1-27.4z"/><ellipse fill="#ffff93" rx="1" ry="1" transform="rotate(92.3 40.3 194.3) scale(201.72668 25.09052)"/><ellipse fill="#ffff9b" rx="1" ry="1" transform="matrix(-134.34478 23.03182 -3.03692 -17.71439 90.5 13.8)"/><ellipse fill="#ca7378" cx="101" cy="54" rx="33" ry="28"/><path fill="#001400" d="M190.2 95.1l-4.8-6.4L203.8 75l4.8 6.4z"/><path fill="#a20d09" d="M82 180l29-56-31 6z"/><path fill="#dbddff" d="M92.3 161.3l12.7-14 32.7 29.4-12.7 14z"/><ellipse fill="#90cb00" rx="1" ry="1" transform="matrix(8.21547 -20.61761 14.55696 5.8005 70.3 102.5)"/><path fill="#d11100" d="M46 155h15v18H46z"/><ellipse fill="#cb2400" cx="194" cy="105" rx="14" ry="14"/><path fill="#ffffa8" d="M107 105l-20 3 5 36z"/><ellipse fill="#543803" rx="1" ry="1" transform="rotate(24.3 -64.4 207.7) scale(7.99644 12.0896)"/></g></svg>