<svg xmlns="http://www.w3.org/2000/svg" viewBox="0 0 591 420"><filter id="b"><feGaussianBlur stdDeviation="12" /></filter><path fill="#a19149" d="M0 0h591v417H0z"/><g filter="url(#b)" transform="translate(1.2 1.2) scale(2.3086)" fill-opacity=".5"><ellipse fill="#00c86f" rx="1" ry="1" transform="matrix(-78.03164 33.78532 -20.60057 -47.57972 123.4 160)"/><ellipse fill="#ffffd3" cx="87" cy="12" rx="63" ry="59"/><ellipse fill="#ff3c00" rx="1" ry="1" transform="matrix(15.5697 -42.2806 123.5579 45.49982 241 74.7)"/><ellipse fill="#e82200" rx="1" ry="1" transform="matrix(-22.46992 -7.15681 22.9587 -72.0824 230 113.9)"/><ellipse fill="#00b547" cx="138" cy="180" rx="58" ry="58"/><ellipse fill="#ff9948" rx="1" ry="1" transform="matrix(10.73418 18.07842 -26.84304 15.93823 124.2 114.4)"/><ellipse fill="#197dff" rx="1" ry="1" transform="matrix(13.00496 -10.13482 14.26716 18.30755 173 109.6)"/><ellipse fill="#6d2305" rx="1" ry="1" transform="matrix(-22.3162 -48.0327 19.8305 -9.21334 13.7 126.6)"/><ellipse fill="#00cf5e" rx="1" ry="1" transform="matrix(2.28365 38.43814 -21.13738 1.2558 72.3 151)"/><ellipse fill="#ffff95" rx="1" ry="1" transform="matrix(14.36916 -20.98562 76.63524 52.47324 252.2 .7)"/><ellipse fill="#f4f9de" rx="1" ry="1" transform="matrix(-56.79119 33.05745 -8.055 -13.83811 90.7 31.1)"/><ellipse fill="#ef8b14" cx="134" cy="66" rx="29" ry="50"/><ellipse fill="#83b200" rx="1" ry="1" transform="matrix(-27.45484 -12.10612 9.57589 -21.71666 72.3 105.7)"/><ellipse fill="#ff5706" rx="1" ry="1" transform="matrix(32.38752 33.77176 -14.56707 13.97 223 34)"/><path fill="#d6edd5" d="M129.1 144.8l7.8-25.3-35.2-16.5 19.7 47.7z"/><ellipse fill="#00ab32" cx="168" cy="160" rx="31" ry="31"/><ellipse fill="#f4ce81" cx="172" cy="73" rx="14" ry="26"/><path fill="maroon" d="M93 87h26v18H93z"/><ellipse fill="#eccf5f" cx="55" cy="77" rx="24" ry="19"/><path fill="#0039a8" d="M182 106l-45 34 22-47z"/><ellipse fill="#00c769" rx="1" ry="1" transform="matrix(12.92487 -26.61772 43.6682 21.20414 96.2 162.7)"/><path fill="#054e00" d="M55 116l46-11-41 27z"/></g></svg>