<svg xmlns="http://www.w3.org/2000/svg" viewBox="0 0 171 170"><filter id="b"><feGaussianBlur stdDeviation="12" /></filter><path fill="#ccd0b5" d="M0 0h171v170H0z"/><g filter="url(#b)" transform="translate(.5 .5)" fill-opacity=".5"><ellipse fill="#3d4400" cx="93" cy="94" rx="51" ry="54"/><ellipse fill="#fff" cy="45" rx="62" ry="62"/><ellipse fill="#004f00" rx="1" ry="1" transform="rotate(-172.8 24.7 63.5) scale(22.66799 16.11576)"/><ellipse fill="#fff" cx="158" cy="44" rx="30" ry="133"/><ellipse fill="red" rx="1" ry="1" transform="matrix(9.06407 3.35142 -10.9986 29.7462 66 66.3)"/><ellipse fill="#fff" rx="1" ry="1" transform="matrix(-96.75132 1.77299 -.31466 -17.17107 91.6 159.5)"/><ellipse fill="#fff" cx="15" cy="1" rx="170" ry="32"/><ellipse fill="#256f00" rx="1" ry="1" transform="matrix(-12.67896 16.71418 -23.40713 -17.75607 116.4 117.7)"/><ellipse fill="#fff" cx="9" cy="70" rx="27" ry="65"/><path fill="#4d741b" d="M80 28h30v108H80z"/><path fill="#8ec882" d="M109 48h36v70h-36z"/><ellipse fill="#567b09" cx="55" cy="127" rx="33" ry="19"/><ellipse fill="#fff" cx="57" cy="169" rx="170" ry="24"/><ellipse fill="#fff" rx="1" ry="1" transform="matrix(6.70298 -107.22964 21.77866 1.3614 167.2 82.2)"/><ellipse fill="#fff" cx="73" cy="3" rx="52" ry="31"/><path fill="#d60e02" d="M62.6 38.4L51.3 77.6l5.2 36.6 13.3 2.2z"/><path fill="#ff3124" d="M87.8 27.2l8.3 8.6-25.9 25-8.3-8.6z"/><path fill="#acc9a2" d="M112 25l21 10-31 55z"/><path fill="#2f6b00" d="M138.8 128l4 8-19.6 10-4-8z"/><ellipse fill="#fff" cx="6" cy="92" rx="11" ry="170"/><path fill="#efdeaa" d="M40 60h13v51H40z"/><ellipse fill="#fff" rx="1" ry="1" transform="matrix(-19.7927 18.33193 -53.55401 -57.82146 156.2 26.2)"/></g></svg>