<svg xmlns="http://www.w3.org/2000/svg" viewBox="0 0 171 170"><filter id="b"><feGaussianBlur stdDeviation="12" /></filter><path fill="#f9eee3" d="M0 0h171v170H0z"/><g filter="url(#b)" transform="translate(.5 .5)" fill-opacity=".5"><ellipse fill="#e29d58" cx="88" cy="95" rx="44" ry="44"/><path fill="#710000" d="M19 95h16v21H19z"/><ellipse fill="#fff" cx="66" cy="144" rx="170" ry="19"/><path fill="#d08147" d="M85 112l63-8-16-26z"/><ellipse fill="#fff" cx="109" cy="29" rx="170" ry="40"/><ellipse fill="#e1a871" rx="1" ry="1" transform="matrix(-38.27214 29.6443 -9.92037 -12.80766 58.2 87)"/><ellipse fill="#fff" cx="101" cy="159" rx="35" ry="35"/><path fill="#ca7b49" d="M37 118l32 4-17-21z"/><path fill="#fff" d="M93 1L-5-16l-11 160z"/><path fill="#fff" d="M82-16l104 1-8 174z"/><path fill="#a13f2c" d="M17 107l11 4 20-30z"/><ellipse fill="#fff" cx="9" cy="145" rx="35" ry="35"/><path fill="#e8ae78" d="M102 72h28v55h-28z"/><ellipse fill="#fff4cd" rx="1" ry="1" transform="matrix(-3.50098 -4.43228 26.57473 -20.99087 60.6 86)"/><ellipse fill="#fff" cx="158" cy="146" rx="31" ry="40"/><ellipse fill="#b36d45" cx="79" cy="85" rx="9" ry="8"/><ellipse fill="#d27d3e" cx="139" cy="98" rx="8" ry="8"/><path fill="#501008" d="M96.2 120.7l-2.4-16.8 4-.6 2.4 16.8z"/><ellipse fill="#fff7c7" cx="126" cy="107" rx="9" ry="9"/><ellipse fill="#fff" cx="44" cy="159" rx="159" ry="36"/><path fill="#fee9cc" d="M106.8 98.7L91.3 66.4l-9.7 80.7-18.1-27.7z"/><ellipse fill="#772c3d" cx="28" cy="107" rx="5" ry="10"/></g></svg>