<svg xmlns="http://www.w3.org/2000/svg" viewBox="0 0 171 170"><filter id="b"><feGaussianBlur stdDeviation="12" /></filter><path fill="#a2958b" d="M0 0h171v170H0z"/><g filter="url(#b)" transform="translate(.5 .5)" fill-opacity=".5"><ellipse fill="#090000" rx="1" ry="1" transform="matrix(1.34783 73.96969 -28.062 .51133 48 93.5)"/><ellipse fill="#fff" cx="164" cy="94" rx="14" ry="169"/><ellipse fill="#fff" cx="7" cy="81" rx="15" ry="164"/><ellipse fill="#008b22" cx="129" cy="29" rx="23" ry="23"/><ellipse fill="#ff0009" cx="41" cy="25" rx="23" ry="19"/><ellipse fill="#fffaee" cx="137" cy="126" rx="73" ry="22"/><path fill="#f37100" d="M68.7 119.5L87.3 133l-20 27.5L48.7 147z"/><ellipse fill="#000916" cx="86" cy="158" rx="65" ry="6"/><ellipse fill="#010006" rx="1" ry="1" transform="matrix(20.94401 8.52339 -17.7575 43.63447 49.5 104.4)"/><ellipse fill="#fff" rx="1" ry="1" transform="matrix(25.83234 -13.27602 5.4411 10.58723 84 29.2)"/><path fill="#fff" d="M158 136l-7-149 35 22z"/><ellipse fill="#af5839" cx="117" cy="77" rx="36" ry="36"/><ellipse fill="#fff" rx="1" ry="1" transform="matrix(.90519 148.45639 -10.42361 .06356 7.3 87)"/><path fill="#009041" d="M96 22h56v24H96z"/><ellipse fill="#fff" cx="106" rx="123" ry="6"/><ellipse fill="#eef5e9" cx="130" cy="108" rx="13" ry="20"/><ellipse fill="#fff" cx="165" cy="113" rx="14" ry="170"/><path fill="#fff" d="M101.7 29.5l-37.8-1.3L53 41.7l39.7.1z"/><ellipse fill="#fffff4" cx="82" cy="113" rx="9" ry="15"/><path fill="#991300" d="M123 73l-36 35 18 4z"/><path fill="#363438" d="M24 41h25v123H24z"/><path fill="#979797" d="M41 100l8-28v54z"/></g></svg>