<svg xmlns="http://www.w3.org/2000/svg" viewBox="0 0 171 170"><filter id="b"><feGaussianBlur stdDeviation="12" /></filter><path fill="#ccd0b5" d="M0 0h171v170H0z"/><g filter="url(#b)" transform="translate(.5 .5)" fill-opacity=".5"><ellipse fill="#403f00" cx="95" cy="90" rx="47" ry="58"/><ellipse fill="#004e00" cx="46" cy="130" rx="27" ry="17"/><ellipse fill="#fff" rx="1" ry="1" transform="matrix(-33.90687 -15.30954 69.95743 -154.93854 27.4 38.1)"/><ellipse fill="#fff" rx="1" ry="1" transform="matrix(27.95912 -5.73918 32.53606 158.50335 146.5 41.5)"/><ellipse fill="#fff" rx="1" ry="1" transform="matrix(-.6079 -24.87338 144.94827 -3.54246 101.4 165.8)"/><path fill="#145c00" d="M102.8 136.7l7.5-30 35 8.6-7.6 30z"/><path fill="red" d="M47 106.7l15.5-67.2L79 43.3l-15.5 67.2z"/><ellipse fill="#2e7f07" cx="97" cy="107" rx="19" ry="33"/><ellipse fill="#fff" rx="1" ry="1" transform="matrix(-156.6713 22.0328 -2.89665 -20.59757 69.8 12.2)"/><path fill="#3d5c20" d="M113 26l-19.7 5.1L134 43.3l-5.8-8.2z"/><ellipse fill="#fff" cx="13" cy="60" rx="28" ry="60"/><ellipse fill="#88c47b" rx="1" ry="1" transform="matrix(20.97941 -1.22826 2.45379 41.91212 126 76.4)"/><ellipse fill="#0e4900" rx="1" ry="1" transform="rotate(113.6 22.5 69.8) scale(35.12477 5.57681)"/><ellipse fill="#577a18" rx="1" ry="1" transform="matrix(-56.9554 8.10595 -2.55364 -17.9428 75.4 126.7)"/><ellipse fill="#fff" cx="170" cy="90" rx="25" ry="167"/><ellipse fill="#fff" rx="1" ry="1" transform="matrix(.44828 15.10426 -132.98883 3.94702 84.8 159.2)"/><path fill="#ff2d1f" d="M62.7 63L84 29.1l9.4 5.9L72 68.9z"/><path fill="#fff" d="M73 90h6v16h-6z"/><path fill="#bdc680" d="M66.7 147.2l59.2-8.2-51.8-4.5-41.8-73.8z"/><path fill="#dbe9cb" d="M115 43l31-11-55 69z"/><ellipse fill="#fff" rx="1" ry="1" transform="matrix(167.42457 29.47902 -3.32163 18.865 83.8 2.8)"/><ellipse fill="#42840d" rx="1" ry="1" transform="matrix(19.59665 -2.69317 2.12893 15.491 40.3 126.5)"/></g></svg>