<svg xmlns="http://www.w3.org/2000/svg" viewBox="0 0 171 170"><filter id="b"><feGaussianBlur stdDeviation="12" /></filter><path fill="#cdb1ac" d="M0 0h171v170H0z"/><g filter="url(#b)" transform="translate(.5 .5)" fill-opacity=".5"><ellipse fill="#75251b" cx="73" cy="45" rx="35" ry="170"/><ellipse fill="#fff" rx="1" ry="1" transform="matrix(-33.87258 -.71753 2.27742 -107.51106 7.6 86.7)"/><ellipse fill="#fff" cx="170" cy="104" rx="63" ry="63"/><ellipse fill="#fff" cx="160" cy="84" rx="27" ry="136"/><ellipse fill="#ff0023" cx="65" cy="156" rx="33" ry="34"/><ellipse fill="#fefaae" rx="1" ry="1" transform="matrix(18.02491 -18.862 12.97112 12.39547 87.5 32.6)"/><ellipse fill="#0a3745" cx="84" cy="82" rx="28" ry="28"/><ellipse fill="#223600" cx="121" cy="6" rx="18" ry="15"/><ellipse fill="#9f6f5e" rx="1" ry="1" transform="matrix(-5.7572 56.04665 -12.18574 -1.25174 119.7 94.5)"/><ellipse fill="#121119" rx="1" ry="1" transform="matrix(-18.02426 -9.07754 13.80753 -27.41608 55 0)"/><ellipse fill="#fff" cx="8" cy="93" rx="32" ry="104"/><path fill="#dddee0" d="M71 70h31v24H71z"/><path fill="#fff" d="M101 106l-13 30 24-11z"/><ellipse fill="#fff" cx="160" cy="80" rx="28" ry="119"/><path fill="#fff" d="M109 75h18v19h-18z"/><ellipse fill="#f5ffff" cx="60" cy="119" rx="8" ry="8"/><ellipse fill="#fff" cx="94" rx="96" ry="1"/><path fill="#091b1b" d="M39 5h12v51H39z"/><ellipse fill="#fff" cx="16" cy="88" rx="21" ry="117"/><path fill="#b71329" d="M115.3 133.7l-10.1-24.2 30.5-6-27.8 23.7z"/><ellipse fill="#a18e4f" cx="114" cy="49" rx="19" ry="17"/><path fill="#fff" d="M0 168h100v2H0z"/></g></svg>