<svg xmlns="http://www.w3.org/2000/svg" viewBox="0 0 171 170"><filter id="b"><feGaussianBlur stdDeviation="12" /></filter><path fill="#cdb1ac" d="M0 0h171v170H0z"/><g filter="url(#b)" transform="translate(.5 .5)" fill-opacity=".5"><ellipse fill="#7a231b" cx="72" cy="83" rx="33" ry="170"/><ellipse fill="#fff" rx="1" ry="1" transform="matrix(-28.56932 .94486 -3.57686 -108.15204 12.4 73)"/><ellipse fill="#fff" cx="161" cy="83" rx="30" ry="121"/><ellipse fill="#f02" cx="64" cy="157" rx="32" ry="32"/><ellipse fill="#13404a" cx="85" cy="81" rx="29" ry="29"/><ellipse fill="#040104" rx="1" ry="1" transform="matrix(13.22062 -.8704 1.93338 29.36624 46.5 10.2)"/><ellipse fill="#9f9a6d" cx="96" cy="32" rx="38" ry="62"/><ellipse fill="#fff" rx="1" ry="1" transform="matrix(1.06107 113.41302 -26.44772 .24744 158.3 90.2)"/><ellipse fill="#fff" rx="1" ry="1" transform="matrix(21.49663 .03752 -.17652 101.14106 16.4 73.4)"/><path fill="#ffffcb" d="M75 12h33v28H75z"/><path fill="#332414" d="M139-2l-1 23L73 4z"/><path fill="#fff" d="M89 135l13-33 6 26z"/><path d="M112 63l-50 5 14-15z"/><ellipse fill="#fff" cx="117" cy="85" rx="10" ry="10"/><ellipse fill="#9c2e2c" cx="112" cy="122" rx="5" ry="30"/><path fill="#24202c" d="M39 25l65-23-70-2z"/><path d="M102 63h6v34h-6z"/><path fill="#cfe1c5" d="M61.9 102.3l23.3 13-28.8 11.4L46 98.6z"/><ellipse fill="#fff" cx="161" cy="83" rx="27" ry="145"/><ellipse fill="#babcd5" cx="87" cy="80" rx="16" ry="14"/><path fill="#fff" d="M24 168h77v2H24z"/><path fill="#240000" d="M113 49l18 9V41z"/></g></svg>