<svg xmlns="http://www.w3.org/2000/svg" viewBox="0 0 921 553"><filter id="b"><feGaussianBlur stdDeviation="12" /></filter><path fill="#e1d3c2" d="M0 0h921v550H0z"/><g filter="url(#b)" transform="translate(1.8 1.8) scale(3.59766)" fill-opacity=".5"><ellipse fill="#ab650d" rx="1" ry="1" transform="matrix(-22.03706 -9.39081 35.14967 -82.48438 204.4 91)"/><ellipse fill="#de2d00" rx="1" ry="1" transform="matrix(-14.88475 -.54021 1.05439 -29.05201 148 87.1)"/><ellipse fill="#f2ffff" cx="55" cy="42" rx="83" ry="166"/><path fill="#a72e0c" d="M182 91h26v57h-26z"/><ellipse fill="#e9ffff" rx="1" ry="1" transform="matrix(46.61246 2.19889 -.51804 10.98158 238.7 88.8)"/><ellipse fill="#c39b29" rx="1" ry="1" transform="matrix(-1.428 8.7353 -45.4745 -7.4339 190.8 11.3)"/><ellipse fill="#f9e8d6" rx="1" ry="1" transform="matrix(11.7753 -11.93822 19.83857 19.56784 203.4 38.1)"/><ellipse fill="#afd201" rx="1" ry="1" transform="matrix(-9.37987 -10.67481 15.14854 -13.3109 233.8 60.1)"/><ellipse fill="#c50000" cx="144" cy="99" rx="15" ry="14"/><ellipse fill="#f5ffff" rx="1" ry="1" transform="matrix(-5.51673 49.96993 -23.9628 -2.64552 243 118)"/><path fill="#a4ed31" d="M146 133h38v20h-38z"/><ellipse fill="#6c9904" rx="1" ry="1" transform="rotate(76.7 36.5 186.3) scale(13.837 14.08956)"/><ellipse fill="#be2b58" cx="229" cy="22" rx="15" ry="15"/><ellipse fill="#f59060" cx="195" cy="56" rx="15" ry="22"/><path fill="#ff7956" d="M167.2 26l-22.9-7.4L158.8-26l22.9 7.5z"/><ellipse fill="#588731" rx="1" ry="1" transform="matrix(-13.76088 -8.07346 2.82583 -4.8165 179.7 88)"/><ellipse fill="#ffe000" cx="146" cy="68" rx="12" ry="10"/><path fill="#6a0300" d="M172 158l23-14 1-24z"/><ellipse fill="#c90037" cx="140" cy="42" rx="7" ry="7"/><ellipse fill="#f6faff" cx="255" cy="36" rx="17" ry="14"/><path fill="#e9eaf2" d="M157 76L-16 66l11 100z"/><path fill="#f0fbff" d="M221 65.8l-2.5-39.7-107 2.8L200 37z"/></g></svg>