<svg xmlns="http://www.w3.org/2000/svg" viewBox="0 0 461 437"><filter id="b"><feGaussianBlur stdDeviation="12" /></filter><path fill="#786e5c" d="M0 0h461v435H0z"/><g filter="url(#b)" transform="translate(.9 .9) scale(1.80078)" fill-opacity=".5"><ellipse fill="#fff" cx="128" cy="192" rx="84" ry="43"/><ellipse rx="1" ry="1" transform="matrix(37.7049 149.00834 -25.48432 6.44853 12.3 162.3)"/><ellipse rx="1" ry="1" transform="matrix(23.56178 -143.88322 23.68258 3.87817 238.8 187)"/><path fill="#fff" d="M197.6 101.7l-147 2.6-.2-18 147-2.6z"/><ellipse cx="225" cy="14" rx="50" ry="26"/><ellipse cx="25" cy="14" rx="53" ry="26"/><ellipse fill="#ffffc5" rx="1" ry="1" transform="matrix(-.32222 -13.15507 51.81538 -1.26916 123.8 27.5)"/><ellipse fill="#fff" cx="143" cy="199" rx="37" ry="37"/><path d="M151 257h120l-8-116z"/><ellipse cx="7" cy="195" rx="32" ry="92"/><ellipse fill="#fff" rx="1" ry="1" transform="matrix(-13.09278 -16.01844 10.7316 -8.77155 201 171.9)"/><ellipse fill="#fffff1" rx="1" ry="1" transform="matrix(30.64586 8.55862 -2.17466 7.7868 215.2 49.4)"/><path fill="#ffff89" d="M12 39h55v28H12z"/><ellipse cx="137" rx="255" ry="18"/><ellipse fill="#fff" rx="1" ry="1" transform="matrix(-24.21995 -6.038 2.01117 -8.0673 210.4 104)"/><path d="M-4 168l104 80-116-7z"/><ellipse fill="#c1b093" cx="69" cy="129" rx="45" ry="45"/><path fill="#3c1c00" d="M68 150h106v12H68z"/><ellipse fill="#ea9d08" rx="1" ry="1" transform="matrix(71.54432 11.57598 -1.89289 11.69883 148.5 46.3)"/><ellipse rx="1" ry="1" transform="rotate(-163.6 134.8 66) scale(28.45935 119.2297)"/><path fill="#fff" d="M75 202h103v32H75z"/><ellipse fill="#fff" rx="1" ry="1" transform="rotate(168.2 16.5 54.6) scale(22.72908 7.21659)"/></g></svg>