<svg xmlns="http://www.w3.org/2000/svg" viewBox="0 0 170 170"><filter id="b"><feGaussianBlur stdDeviation="12" /></filter><path fill="#dfd6c5" d="M0 0h170v170H0z"/><g filter="url(#b)" transform="translate(.5 .5)" fill-opacity=".5"><ellipse fill="#991500" cx="85" cy="49" rx="34" ry="34"/><ellipse fill="#7b6f00" rx="1" ry="1" transform="matrix(-18.64598 55.72696 -26.7661 -8.95581 89.1 143.2)"/><ellipse fill="#fff" rx="1" ry="1" transform="matrix(.75372 -168.99832 36.70736 .16371 19 55.2)"/><ellipse fill="#002486" cx="85" cy="15" rx="28" ry="10"/><ellipse fill="#fff" cx="149" cy="51" rx="34" ry="169"/><ellipse fill="#cb6000" rx="1" ry="1" transform="rotate(-122.7 54.8 1.3) scale(24.40162 31.99255)"/><path fill="#7a91d5" d="M59 73h63v34H59z"/><path fill="#9c2d00" d="M53 148h64v16H53z"/><ellipse fill="#ffff4c" rx="1" ry="1" transform="rotate(128.4 5.5 81.4) scale(23.27583 15.88945)"/><ellipse fill="#fff" rx="1" ry="1" transform="matrix(-37.62884 -5.75802 24.83223 -162.27935 11.9 101.5)"/><path fill="#721a00" d="M49 60h63v15H49z"/><path fill="#4e3a44" d="M119 54l-1 42-21-3z"/><ellipse fill="#fff" cx="152" cy="86" rx="32" ry="169"/><ellipse fill="#fff" cx="141" cy="23" rx="32" ry="32"/><ellipse fill="#0e84dc" cx="86" cy="10" rx="28" ry="9"/><ellipse fill="#f2ffff" cx="56" cy="77" rx="48" ry="4"/><path fill="#f18a00" d="M64 24h44v36H64z"/><path fill="#fff" d="M-4.4 159.1l1.9-9.8 111 21.6-2 9.8z"/><path fill="#7a6e17" d="M122 109.7L66.2 167l53.5-9.6-1.6-16.1z"/><ellipse fill="#fdfeff" cx="98" cy="2" rx="49" ry="6"/><ellipse fill="#fff" cx="58" cy="107" rx="16" ry="10"/><path fill="#fff" d="M160.1 185L185-16l-76 36.7L120.2 62z"/></g></svg>