<svg xmlns="http://www.w3.org/2000/svg" viewBox="0 0 170 170"><filter id="b"><feGaussianBlur stdDeviation="12" /></filter><path fill="#9ca7ae" d="M0 0h170v170H0z"/><g filter="url(#b)" transform="translate(.5 .5)" fill-opacity=".5"><ellipse rx="1" ry="1" transform="matrix(23.04954 36.88697 -56.93986 35.57997 80.7 169.1)"/><ellipse fill="#fff" cx="13" cy="99" rx="22" ry="117"/><ellipse fill="#fff" rx="1" ry="1" transform="matrix(2.50067 -118.6947 30.8701 .65037 169 86.4)"/><ellipse fill="#0048b9" rx="1" ry="1" transform="matrix(-10.77668 -33.96096 19.58166 -6.21376 120 15.2)"/><ellipse fill="#000049" rx="1" ry="1" transform="rotate(-86.2 90.6 34) scale(30.69927 16.63091)"/><ellipse fill="#004eb9" cx="50" cy="12" rx="21" ry="49"/><ellipse fill="#ecae44" rx="1" ry="1" transform="rotate(170.7 41.8 42.9) scale(38.007 52.38492)"/><ellipse fill="#002362" rx="1" ry="1" transform="matrix(-3.44915 62.34517 -8.75308 -.48425 130.2 115.6)"/><ellipse fill="#fff" rx="1" ry="1" transform="matrix(16.079 -1.2924 5.31432 66.11616 17.5 104.6)"/><ellipse fill="#00001d" rx="1" ry="1" transform="matrix(-8.65303 -19.33855 43.06702 -19.27033 93.6 157.4)"/><ellipse fill="#fff" rx="1" ry="1" transform="matrix(-30.26247 .68675 -2.45054 -107.9859 169 85)"/><path fill="#dbf6ff" d="M71 105h21v36H71z"/><ellipse fill="#0052b2" rx="1" ry="1" transform="matrix(42.83866 -1.14279 .29807 11.17347 71.2 13.2)"/><ellipse fill="#fff" cy="31" rx="32" ry="32"/><ellipse fill="#004e9e" cx="120" cy="36" rx="11" ry="30"/><path fill="#1a6098" d="M99 102L38 88l-5 27z"/><ellipse fill="#fff" cx="7" cy="95" rx="27" ry="117"/><ellipse fill="#fff" cx="152" cy="133" rx="14" ry="37"/><ellipse fill="#060019" rx="1" ry="1" transform="matrix(-4.33495 -17.39581 11.9148 -2.96911 131.3 163.1)"/><path fill="#3ea3df" d="M126 32h14v67h-14z"/><path fill="#edd957" d="M49 64h82v25H49z"/><path fill="#2590db" d="M34 21h14v90H34z"/></g></svg>