<svg xmlns="http://www.w3.org/2000/svg" viewBox="0 0 170 170"><filter id="b"><feGaussianBlur stdDeviation="12" /></filter><path fill="#9ca7ae" d="M0 0h170v170H0z"/><g filter="url(#b)" transform="translate(.5 .5)" fill-opacity=".5"><ellipse rx="1" ry="1" transform="matrix(2.3259 33.26202 -55.60703 3.88842 87.2 152.7)"/><ellipse fill="#fff" cx="12" cy="92" rx="23" ry="109"/><ellipse fill="#fff" rx="1" ry="1" transform="matrix(30.02591 .97977 -4.50964 138.20138 169 76.7)"/><ellipse fill="#0045b3" cx="85" cy="15" rx="59" ry="15"/><ellipse fill="#edb148" cx="89" cy="79" rx="36" ry="56"/><ellipse fill="#000f53" cx="52" cy="134" rx="19" ry="43"/><ellipse fill="#002" cx="107" cy="162" rx="36" ry="36"/><ellipse fill="#0a5b9b" rx="1" ry="1" transform="matrix(-12.13674 1.13425 -7.84811 -83.97642 126.3 54.3)"/><ellipse fill="#fff" rx="1" ry="1" transform="rotate(-177.7 80.6 38) scale(20.27001 115.77123)"/><ellipse fill="#fff" cx="12" cy="88" rx="21" ry="118"/><path fill="#0062c3" d="M61.1 3l-4.3 61.8-24-1.7 4.4-61.9z"/><ellipse fill="#ecffff" cx="81" cy="125" rx="13" ry="17"/><path fill="#ffdb3c" d="M130.2 72.2l-9.8 46-20.6-4.4 9.8-46z"/><path fill="#101232" d="M117 107h22v63h-22z"/><path fill="#165a9d" d="M36 98h57v10H36z"/><ellipse fill="#fff" cx="13" cy="99" rx="22" ry="106"/><path fill="#03000f" d="M30 157h56v13H30z"/><path fill="#1574bf" d="M77.5-16L41.1 96.7l-7.5 25.6L34.8 60z"/><path fill="#006cc4" d="M140 50.3l-20-1.8 4-46.8 20 1.8z"/><ellipse fill="#fff" cx="159" cy="69" rx="17" ry="147"/><path fill="#fff" d="M41 152h19v5H41z"/><path fill="#f1d852" d="M48 63h76v24H48z"/></g></svg>