<svg xmlns="http://www.w3.org/2000/svg" viewBox="0 0 170 170"><filter id="b"><feGaussianBlur stdDeviation="12" /></filter><path fill="#bc9e8d" d="M0 0h170v170H0z"/><g filter="url(#b)" transform="translate(.5 .5)" fill-opacity=".5"><ellipse fill="#892927" cx="89" cy="91" rx="60" ry="60"/><path fill="#fff" d="M169.5-7v28H.5V-7zm-1 158.5v35H-.5v-35z"/><ellipse fill="#1074fe" cx="87" cy="116" rx="67" ry="8"/><ellipse fill="#af0000" rx="1" ry="1" transform="matrix(.02316 17.33192 -35.69126 .04769 87.7 56.1)"/><ellipse fill="#fff" cx="87" cy="3" rx="169" ry="17"/><ellipse fill="#fff" cx="71" cy="166" rx="169" ry="14"/><ellipse fill="#7b5d00" cx="89" cy="138" rx="37" ry="11"/><path fill="#bc9d66" d="M123 24h47v89h-47z"/><path fill="#8c9e6a" d="M11 21h42v55H11z"/><path fill="#ae0000" d="M137 70l11 33-23-3z"/><ellipse fill="#eaf9f5" cx="2" cy="103" rx="5" ry="169"/><path fill="#e3dcb2" d="M23 105h126v8H23z"/><ellipse fill="#8e9e71" rx="1" ry="1" transform="matrix(81.93621 -3.27753 .4034 10.0848 83 31.1)"/><path fill="#b00000" d="M105 80h16v25h-16z"/><path fill="#d3cca3" d="M48.8 79.8l3.8-13.5 34.6 10-3.8 13.4z"/><ellipse fill="#b6bf95" cx="89" cy="126" rx="93" ry="4"/><ellipse fill="#fff" cx="102" cy="8" rx="169" ry="12"/><path fill="#d0d2a1" d="M77 82l63-23-12 20z"/><path fill="#b60000" d="M51.6 111.5l-8.3-22L26 62.1l7.5 28.1z"/><ellipse fill="#fff" rx="1" ry="1" transform="rotate(90.5 -38.2 126.4) scale(11.89679 127.63802)"/><ellipse fill="#ab0409" cx="99" cy="58" rx="25" ry="14"/></g></svg>