<svg xmlns="http://www.w3.org/2000/svg" viewBox="0 0 74 74"><filter id="b"><feGaussianBlur stdDeviation="12" /></filter><path fill="#d2e1e9" d="M0 0h74v74H0z"/><g filter="url(#b)" transform="translate(.5 .5)" fill-opacity=".5"><ellipse fill="#6c8ea4" cx="37" cy="39" rx="32" ry="20"/><ellipse fill="#fff" cx="27" cy="4" rx="73" ry="14"/><ellipse fill="#fff" cx="44" cy="71" rx="73" ry="14"/><path fill="#8c8843" d="M9 38h42v7H9z"/><ellipse fill="#a7ffff" cx="25" cy="49" rx="70" ry="4"/><ellipse fill="#ebffff" cx="62" cy="22" rx="13" ry="13"/><path fill="#00000f" d="M24 56h33v1H24z"/><ellipse fill="#215c97" cx="39" cy="22" rx="16" ry="3"/><path fill="#0971d3" d="M30 36h40v4H30z"/><ellipse fill="#fff" cx="47" cy="2" rx="73" ry="16"/><ellipse fill="#fff" rx="1" ry="1" transform="matrix(-.13975 8.6337 -63.4886 -1.02765 35.4 66.7)"/><path fill="#df8a8f" d="M48.1 23l.7 10-27 2-.6-10z"/><path fill="#caffff" d="M24 15l-3 18-37-14z"/><path fill="#e1f7f2" d="M48 40h23v6H48z"/><path fill="#fff" d="M23.4 75.5L-10.2 80 .8-6l6 50.5z"/><ellipse fill="#fff" rx="1" ry="1" transform="matrix(-33.8165 22.98167 -3.52 -5.17952 68 58.3)"/><path fill="#93e7ff" d="M58 32l-20 9-14-8z"/><path fill="#acefff" d="M42 13l21 5 14 25z"/><ellipse fill="#7d6387" cx="29" cy="55" rx="15" ry="3"/><path fill="#594b72" d="M48.3 36.8l-.9 2.7-6.6 5.7 28-11z"/><path fill="#a1e7ff" d="M47 48l-34 8-16-13z"/><path fill="#57afa8" d="M11.4 33.7l.9 4.4-9 9.6 5.4-24z"/></g></svg>