<svg xmlns="http://www.w3.org/2000/svg" viewBox="0 0 170 170"><filter id="b"><feGaussianBlur stdDeviation="12" /></filter><path fill="#ddccb0" d="M0 0h170v170H0z"/><g filter="url(#b)" transform="translate(.5 .5)" fill-opacity=".5"><ellipse fill="#e15200" cx="89" cy="33" rx="58" ry="18"/><ellipse fill="#c78400" cx="85" cy="150" rx="53" ry="17"/><ellipse fill="#fff" rx="1" ry="1" transform="matrix(17.76239 -.88198 8.38127 168.79204 163.1 85.5)"/><ellipse fill="#fff" cx="7" cy="56" rx="21" ry="169"/><ellipse fill="#5888bf" cx="76" cy="89" rx="53" ry="15"/><ellipse fill="#c98b26" cx="77" cy="34" rx="47" ry="29"/><ellipse fill="#fff" cx="9" cy="76" rx="17" ry="169"/><ellipse fill="#fff" cx="91" rx="169" ry="8"/><ellipse fill="#fff" cx="163" cy="121" rx="17" ry="168"/><ellipse fill="#7c5a37" cx="141" cy="100" rx="5" ry="27"/><path fill="#00703c" d="M97 117h19v10H97z"/><ellipse fill="#a69355" cx="41" cy="129" rx="16" ry="27"/><ellipse fill="#fff" cx="25" cy="169" rx="19" ry="19"/><path fill="#f2d800" d="M72.5 75.7l-8-12.8 17-10.6 8 12.8z"/><path fill="#c4110a" d="M46.4 71.5l2.2 17.9-9 1-2.2-17.8z"/><path fill="#c3dfff" d="M98 76L82 55l75-17z"/><path fill="#ffa124" d="M71 17h70v29H71z"/><ellipse fill="#fff" rx="1" ry="1" transform="rotate(76 -34.5 178.6) scale(12.85318 77.68188)"/><ellipse fill="#b6d95d" cx="89" cy="136" rx="22" ry="16"/><path fill="#bd8d7a" d="M127.2 53.5L99.2 82l26.2 8.2 7.5-12.5z"/><path fill="#fff" d="M115.3 127l-3.3-20.7 20.7-3.3 3.3 20.7z"/><ellipse fill="#607a90" cx="64" cy="51" rx="39" ry="5"/></g></svg>