<svg xmlns="http://www.w3.org/2000/svg" viewBox="0 0 170 170"><filter id="b"><feGaussianBlur stdDeviation="12" /></filter><path fill="#e5e2cc" d="M0 0h170v170H0z"/><g filter="url(#b)" transform="translate(.5 .5)" fill-opacity=".5"><ellipse fill="#5d4200" rx="1" ry="1" transform="matrix(44.42682 1.06281 -.8612 35.9992 50 95)"/><ellipse fill="#9e8100" cx="43" cy="94" rx="40" ry="35"/><ellipse fill="#fff" cx="65" rx="62" ry="62"/><ellipse fill="#fff" cx="133" cy="169" rx="67" ry="67"/><ellipse fill="#fff" cx="59" cy="24" rx="169" ry="32"/><ellipse fill="#fff" rx="1" ry="1" transform="matrix(166.58389 -28.4747 5.77185 33.76674 72.1 165.2)"/><ellipse fill="#9ebc6a" cx="93" cy="92" rx="29" ry="28"/><ellipse fill="#667300" rx="1" ry="1" transform="matrix(-24.5747 8.99306 -4.11687 -11.24988 66 79)"/><ellipse fill="#e04a00" cx="35" cy="95" rx="20" ry="23"/><ellipse fill="#fff" rx="1" ry="1" transform="matrix(-131.71295 71.99093 -15.44019 -28.24902 149 122.5)"/><path fill="#fff" d="M117-9l68 1-4 120z"/><path fill="#ffbd1c" d="M37.1 76.2l27.2 20.4-11.4 15.2-27.2-20.4z"/><ellipse fill="#fff" rx="1" ry="1" transform="matrix(6.49042 -32.18889 14.44009 2.91163 9.9 49)"/><path fill="#d8cabd" d="M87 65h43v47H87z"/><ellipse fill="#fff" cx="52" cy="163" rx="169" ry="26"/><path fill="#72ba09" d="M74 65h12v55H74z"/><path fill="#7d1f09" d="M44.4 129l11.3-6.3L21.5 85l6.8 31.6z"/><path fill="#cbf097" d="M81 112l-29 11 21-21z"/><path fill="#6f7011" d="M11 84l62.4 4-36.2-32.2-12.3 8.8z"/><path fill="#dacba8" d="M138.5 36.3l22.8 36.5-39.8 24.9-22.8-36.5z"/><ellipse fill="#fff" rx="1" ry="1" transform="matrix(117.59199 -11.67087 3.11177 31.35314 55.9 21.6)"/><path fill="#71861f" d="M86.2 68l35.6 10 3.2 6.4L35.3 57z"/></g></svg>