<svg xmlns="http://www.w3.org/2000/svg" viewBox="0 0 170 170"><filter id="b"><feGaussianBlur stdDeviation="12" /></filter><path fill="#bc9e8d" d="M0 0h170v170H0z"/><g filter="url(#b)" transform="translate(.5 .5)" fill-opacity=".5"><ellipse fill="#882324" cx="85" cy="92" rx="58" ry="58"/><ellipse fill="#fff" rx="1" ry="1" transform="matrix(.36186 -20.39848 149.87878 2.65875 78.5 1.5)"/><ellipse fill="#fff" cx="89" cy="169" rx="168" ry="19"/><path fill="#2b80f1" d="M88 101l74 21-153 1z"/><ellipse fill="#b20000" cx="85" cy="55" rx="35" ry="17"/><ellipse fill="#fff" rx="1" ry="1" transform="rotate(90.3 30 37.3) scale(13.42629 116.14709)"/><ellipse fill="#fff" cx="61" cy="167" rx="169" ry="15"/><ellipse fill="#7a5800" cx="88" cy="140" rx="36" ry="9"/><ellipse fill="#899e67" cx="30" cy="48" rx="25" ry="25"/><ellipse fill="#d69870" cx="124" cy="105" rx="100" ry="8"/><path fill="#d2c39c" d="M85.9 89.8L56.6 62.5l-27.3 7L50 78z"/><path fill="#bbae73" d="M160 34l-35 53.8-15-9.8 34.8-53.6z"/><path fill="#bd171c" d="M93 81h53v23H93z"/><path fill="#fff" d="M185 155L66 185l-82-34z"/><ellipse fill="#eaf9f4" cy="68" rx="7" ry="169"/><ellipse fill="#0000a2" cx="86" cy="114" rx="73" ry="2"/><ellipse fill="#fff" cx="113" cy="6" rx="169" ry="14"/><path fill="#e6ffea" d="M100 73h4v35h-4z"/><path fill="#be0001" d="M33.9 76.3l12.9 1.6L44 99.7l-12.9-1.6z"/><path fill="#d5fde6" d="M129 97h10v16h-10z"/><path fill="#819e71" d="M116.1 39.2l-12-18.6-54.8-.8L-5.4 44z"/><ellipse fill="#b6b57c" cx="100" cy="127" rx="145" ry="5"/></g></svg>