<svg xmlns="http://www.w3.org/2000/svg" viewBox="0 0 74 74"><filter id="b"><feGaussianBlur stdDeviation="12" /></filter><path fill="#d2e1e9" d="M0 0h74v74H0z"/><g filter="url(#b)" transform="translate(.5 .5)" fill-opacity=".5"><ellipse fill="#6b8c9e" rx="1" ry="1" transform="rotate(-94.6 34.3 4.5) scale(19.88981 26.36617)"/><ellipse fill="#fff" cx="33" rx="73" ry="18"/><path fill="#fff" d="M75.3 86.6l-73 3.8-1.6-31 73-3.8z"/><path fill="#0b72b6" d="M23 36h48v4H23z"/><ellipse fill="#5a496e" cx="46" cy="55" rx="16" ry="3"/><path fill="#0446af" d="M22 20h28v4H22z"/><ellipse fill="#97f7ff" cx="37" cy="49" rx="33" ry="5"/><path fill="#a2822f" d="M49 45.8L8.4 40.1l.6-4L49.6 42z"/><ellipse fill="#fff" rx="1" ry="1" transform="rotate(3.6 -101.5 840.5) scale(73 10.70301)"/><ellipse fill="#f7c8dd" cx="37" cy="31" rx="25" ry="5"/><ellipse fill="#fff" cx="33" cy="67" rx="73" ry="10"/><path fill="#d2ffff" d="M-1.1 12.2l25.5 5L21 33.7l-25.5-5z"/><path fill="#22178f" d="M53 35h15v5H53z"/><ellipse fill="#c58671" cx="37" cy="28" rx="11" ry="6"/><path fill="#fff" d="M68.2 51.3L-13.5 89 89 74.4 70.5-1z"/><path fill="#3f3d6f" d="M14 56h37v2H14z"/><path fill="#6fe3ff" d="M3 35h50v3H3z"/><path fill="#fff" d="M-16 81V36l84 53z"/><path fill="#fff" d="M-16 68.3l29.9-54.2L89 19.6 5-16z"/><path fill="#59a4a7" d="M6 23h5v21H6z"/><path fill="#91d9f8" d="M77.1 48.9l-30.2 7-2-8.8 30.2-7z"/><ellipse fill="#a6f2ff" cx="57" cy="23" rx="7" ry="7"/></g></svg>