<svg xmlns="http://www.w3.org/2000/svg" viewBox="0 0 170 170"><filter id="b"><feGaussianBlur stdDeviation="12" /></filter><path fill="#e5e2cc" d="M0 0h170v170H0z"/><g filter="url(#b)" transform="translate(.5 .5)" fill-opacity=".5"><ellipse fill="#604800" rx="1" ry="1" transform="matrix(42.9406 -3.41698 3.06096 38.46647 48.6 94.6)"/><ellipse fill="#9c7b00" rx="1" ry="1" transform="rotate(166.9 17.2 49.4) scale(39.0186 33.75267)"/><ellipse fill="#fff" cx="59" cy="4" rx="58" ry="58"/><ellipse fill="#fff" rx="1" ry="1" transform="rotate(160.8 38.5 85.7) scale(169 37.11015)"/><ellipse fill="#fff" rx="1" ry="1" transform="matrix(-7.50028 -39.58296 166.04547 -31.46272 104 11)"/><ellipse fill="#489b00" cx="74" cy="74" rx="21" ry="11"/><ellipse fill="#b9b692" cx="106" cy="89" rx="23" ry="21"/><ellipse fill="#de5402" cx="38" cy="97" rx="24" ry="24"/><ellipse fill="#fff" rx="1" ry="1" transform="matrix(137.183 -94.99002 25.00672 36.1143 152.9 131.3)"/><path fill="#9ccc4b" d="M46.4 105.8L84 83l17.5 29.1L64 135z"/><ellipse fill="#fff" rx="1" ry="1" transform="matrix(-147.16866 -1.38598 .36103 -38.33587 28 166.8)"/><ellipse fill="#fff" cx="169" cy="24" rx="38" ry="38"/><ellipse fill="#3d4601" rx="1" ry="1" transform="rotate(21.1 -191.4 204.3) scale(28.99204 5.25762)"/><path fill="#fff" d="M37-41.1l43.8 38L-15 107.1l-43.8-38z"/><path fill="#5f2d00" d="M47.7 109.7l14 19L41 128 20 89.7z"/><path fill="#95ff16" d="M6 78h9v31H6z"/><path fill="#ffbe19" d="M30.7 94.6l11.7-15 22.9 17.8-11.7 15z"/><path fill="#e3d9d9" d="M87 75h11v54H87z"/><ellipse fill="#fff" cx="58" cy="14" rx="116" ry="34"/><path fill="#c98039" d="M139.4 54l-9.4 1.6 11.4 10 3.4-2.4z"/><ellipse fill="#fff" cx="163" cy="93" rx="9" ry="169"/><path fill="#93c91f" d="M29.7 83.6L8.8 75l30.9-21.2 1.2 8.7z"/></g></svg>