<svg xmlns="http://www.w3.org/2000/svg" viewBox="0 0 170 170"><filter id="b"><feGaussianBlur stdDeviation="12" /></filter><path fill="#d7d2c7" d="M0 0h170v170H0z"/><g filter="url(#b)" transform="translate(.5 .5)" fill-opacity=".5"><path fill="#0000b5" d="M7 114h163v16H7z"/><ellipse fill="#d2ad23" rx="1" ry="1" transform="matrix(-109.40031 -2.69668 .71456 -28.98867 105.8 77.8)"/><ellipse fill="#fff" cx="79" cy="9" rx="130" ry="32"/><path fill="#0c0eca" d="M112 125L24 96l-37 40z"/><ellipse fill="#fff" cx="110" cy="152" rx="138" ry="22"/><ellipse fill="#237500" rx="1" ry="1" transform="matrix(.13212 -34.61744 5.9207 .0226 155 83)"/><path fill="#4b9300" d="M8 57h15v38H8z"/><path fill="#fff" d="M-16 109L7 22l1 126zM163 0h7v126h-7z"/><ellipse fill="#fff" cx="87" cy="15" rx="106" ry="25"/><path fill="#fffeff" d="M124 118l-94-14 77-9z"/><ellipse fill="#fff" rx="1" ry="1" transform="matrix(99.24583 7.33816 -2.07886 28.11584 92.2 159.4)"/><path fill="#0000bd" d="M7 107h22v30H7z"/><path fill="#4dd7ff" d="M-2.8 32.9L8 57.7l19.3 7.4L18 32.6z"/><ellipse fill="#fcedff" cx="55" cy="87" rx="24" ry="8"/><ellipse fill="#fbbe34" rx="1" ry="1" transform="matrix(4.02413 27.58443 -17.55988 2.5617 117.5 81.5)"/><path fill="#fafffb" d="M127 0h15v79h-15z"/><path fill="#479100" d="M165 60l-26-14 18 40z"/><path d="M43 128h117v2H43z"/><ellipse fill="#9d651e" rx="1" ry="1" transform="matrix(.09015 -3.9725 30.64331 .6954 44 65)"/><ellipse fill="#3636f2" cx="65" cy="116" rx="13" ry="10"/><path fill="#fff" d="M162 42h8v80h-8z"/></g></svg>