<svg xmlns="http://www.w3.org/2000/svg" viewBox="0 0 170 170"><filter id="b"><feGaussianBlur stdDeviation="12" /></filter><path fill="#e3e1c7" d="M0 0h170v170H0z"/><g filter="url(#b)" transform="translate(.5 .5)" fill-opacity=".5"><ellipse fill="#827a00" cx="77" cy="83" rx="128" ry="32"/><ellipse fill="#fff" cx="71" cy="169" rx="61" ry="61"/><path fill="#00f" d="M23 105h58v10H23z"/><path fill="#0046ff" d="M142 77h26v36h-26z"/><ellipse fill="#fff" rx="1" ry="1" transform="matrix(123.21024 1.50806 -.3404 27.8106 93.3 25)"/><ellipse fill="#4e6fed" cx="59" cy="90" rx="21" ry="21"/><ellipse fill="#ffd72a" cx="115" cy="79" rx="31" ry="31"/><ellipse fill="#fff" cx="83" cy="144" rx="169" ry="31"/><ellipse fill="#fff100" cx="28" cy="63" rx="161" ry="9"/><ellipse fill="#0340c3" cx="111" cy="110" rx="42" ry="5"/><ellipse fill="#fff" rx="1" ry="1" transform="matrix(-41.63843 84.77493 -8.42458 -4.13786 159.4 123.9)"/><path fill="#fff" d="M-13 94L70-16-16 0z"/><ellipse fill="#fff" cx="121" cy="25" rx="169" ry="28"/><path fill="#fff" d="M34 167L-1 67l-1 118z"/><path fill="#d4cc00" d="M4 64h37v41H4z"/><path fill="#fbdf15" d="M79 52h18v60H79z"/><path fill="#0031e8" d="M154.5 91.2l8 11.5-23 16-8-11.4z"/><path fill="#173cb4" d="M20 76h10v19H20z"/><path fill="#001ff5" d="M154 76l13-5-3 33z"/><ellipse fill="#002ad5" cx="47" cy="108" rx="30" ry="6"/><ellipse fill="#eeae5e" cx="121" cy="87" rx="23" ry="23"/><ellipse fill="#fff" cx="120" cy="136" rx="169" ry="23"/></g></svg>