<svg xmlns="http://www.w3.org/2000/svg" viewBox="0 0 74 74"><filter id="b"><feGaussianBlur stdDeviation="12" /></filter><path fill="#d2e1e9" d="M0 0h74v74H0z"/><g filter="url(#b)" transform="translate(.5 .5)" fill-opacity=".5"><ellipse fill="#6d97ae" cx="35" cy="37" rx="33" ry="21"/><ellipse fill="#fff" cx="33" cy="8" rx="73" ry="12"/><ellipse fill="#fff" cx="25" cy="67" rx="73" ry="10"/><path fill="#2b1c52" d="M18 56h42v2H18z"/><ellipse fill="#76865d" cx="33" cy="40" rx="27" ry="4"/><path fill="#fcffff" d="M52.5 1h25v32h-25z"/><path fill="#1668d6" d="M35 35h33v5H35z"/><path fill="#b3707f" d="M23.7 33l-.4-11 27-1 .4 11z"/><path fill="#baffff" d="M5 31l3.3-15.6L25 19l-3.3 15.7z"/><path fill="#b2f3ff" d="M73.8 37.7l-89 15.2 42.4.2L89 51z"/><ellipse fill="#fff" cx="55" cy="67" rx="73" ry="11"/><path fill="#267db4" d="M22 19h27v6H22z"/><ellipse fill="#fff" rx="1" ry="1" transform="matrix(72.89013 -.99361 .1589 11.65667 21 6.4)"/><path fill="#fff" d="M8 89l-24-72L5 7z"/><path fill="#bd7d38" d="M17 41h31v4H17z"/><ellipse fill="#f6eeff" cx="33" cy="28" rx="24" ry="2"/><path fill="#382f69" d="M15 55h42v2H15z"/><path fill="#97f1ff" d="M14 34h38v4H14z"/><path fill="#bbf2ff" d="M48.4 30.5l9-24.6 22.8 46.7-17-22.8z"/><path fill="#fff" d="M82 80l7-53-52 58z"/><path fill="#b08c55" d="M28 23h16v6H28z"/><path fill="#4c4092" d="M67.5 34l.3 2-2.5 4L49 37.3z"/></g></svg>