<svg xmlns="http://www.w3.org/2000/svg" viewBox="0 0 170 170"><filter id="b"><feGaussianBlur stdDeviation="12" /></filter><path fill="#ddccb0" d="M0 0h170v170H0z"/><g filter="url(#b)" transform="translate(.5 .5)" fill-opacity=".5"><ellipse fill="#d16500" rx="1" ry="1" transform="rotate(87.9 24.7 59.6) scale(26.64818 55.13138)"/><ellipse fill="#c79613" rx="1" ry="1" transform="rotate(97.8 -22.8 108.2) scale(21.07264 55.85896)"/><ellipse fill="#fff" rx="1" ry="1" transform="matrix(4.45019 -167.74324 21.48959 .57011 9.7 58.4)"/><ellipse fill="#fff" cx="158" cy="70" rx="13" ry="169"/><ellipse fill="#5081bd" rx="1" ry="1" transform="rotate(-173.6 38.3 41.9) scale(41.88181 14.96204)"/><ellipse fill="#005e21" cx="106" cy="122" rx="9" ry="6"/><ellipse fill="#fff" rx="1" ry="1" transform="rotate(87.9 -43.1 51.7) scale(142.54313 16.41651)"/><path fill="#df9b00" d="M68 20h15v52H68z"/><ellipse fill="#ff8b01" cx="117" cy="34" rx="31" ry="12"/><ellipse fill="#fff" cx="150" cy="169" rx="29" ry="15"/><ellipse fill="#fff" cx="166" cy="59" rx="33" ry="29"/><ellipse fill="#a19c9e" rx="1" ry="1" transform="matrix(13.04382 -.4162 1.47512 46.23079 38.1 86.9)"/><path fill="#745130" d="M138 78h8v45h-8z"/><ellipse fill="#fffff7" cx="103" rx="99" ry="18"/><path fill="#c2e0ff" d="M117.9 47.6l3 24.8-32.8 4-3-24.8z"/><ellipse fill="#b25412" rx="1" ry="1" transform="matrix(22.5237 10.74623 -2.7246 5.71067 49.5 154.1)"/><ellipse fill="#cd6f09" cx="55" cy="28" rx="18" ry="20"/><ellipse fill="#fff" rx="1" ry="1" transform="matrix(-1.14067 60.40064 -13.82431 -.26107 161.7 110.6)"/><path fill="#427db3" d="M54 93h72v8H54z"/><ellipse fill="#fff" rx="1" ry="1" transform="rotate(108.6 -48.7 93.1) scale(16.23362 67.03492)"/><path fill="#ecedee" d="M49 105l15 29 32-40z"/><path fill="#fff" d="M114.5 129.6l1.8 13.9 19-32.3.7-41z"/></g></svg>