<svg xmlns="http://www.w3.org/2000/svg" viewBox="0 0 170 170"><filter id="b"><feGaussianBlur stdDeviation="12" /></filter><path fill="#dfd6c5" d="M0 0h170v170H0z"/><g filter="url(#b)" transform="translate(.5 .5)" fill-opacity=".5"><ellipse fill="#7e5405" rx="1" ry="1" transform="matrix(-1.85724 -101.5202 35.34031 -.64653 86 98.6)"/><ellipse fill="#fff" cx="11" cy="107" rx="63" ry="63"/><ellipse fill="#d74000" cx="84" cy="46" rx="30" ry="28"/><ellipse fill="#fff" rx="1" ry="1" transform="matrix(-32.48542 .68895 -3.58335 -168.962 150.5 79.3)"/><ellipse fill="#fff" rx="1" ry="1" transform="matrix(30.85088 4.8863 -26.43743 166.91935 22.9 52.2)"/><path fill="#0050d4" d="M50.6 19.3l58.1 4 5.3-16-47.3-1z"/><ellipse fill="#94afff" rx="1" ry="1" transform="matrix(38.75855 2.86194 -.94559 12.80589 85.3 87)"/><ellipse fill="#a38100" cx="86" cy="148" rx="36" ry="17"/><path fill="#670000" d="M51 61h60v13H51z"/><ellipse fill="#faff53" cx="75" cy="129" rx="21" ry="21"/><ellipse fill="#fff" cx="26" cy="28" rx="35" ry="35"/><ellipse fill="#fff" rx="1" ry="1" transform="matrix(29.35314 1.23026 -7.07699 168.85175 148 87)"/><ellipse fill="#e3ffff" cx="86" rx="37" ry="8"/><path fill="#c0d9ff" d="M49 96h72v13H49z"/><path fill="#626a5e" d="M104 61h17v75h-17z"/><ellipse fill="#e17100" rx="1" ry="1" transform="rotate(51.3 -3.5 127) scale(30.16189 15.69699)"/><ellipse fill="#fff" cx="27" cy="130" rx="24" ry="169"/><path fill="#fafcff" d="M0 164h139v6H0z"/><path fill="#a04300" d="M52 147h66v14H52z"/><ellipse fill="#fff" rx="1" ry="1" transform="rotate(132.8 64.9 44.3) scale(31.12162 31.16031)"/><ellipse fill="#fff" cx="146" cy="143" rx="27" ry="169"/><ellipse fill="#fff" cx="50" cy="107" rx="27" ry="9"/></g></svg>