<svg xmlns="http://www.w3.org/2000/svg" viewBox="0 0 170 170"><filter id="b"><feGaussianBlur stdDeviation="12" /></filter><path fill="#d7d2c7" d="M0 0h170v170H0z"/><g filter="url(#b)" transform="translate(.5 .5)" fill-opacity=".5"><ellipse fill="#0000c3" rx="1" ry="1" transform="matrix(133.12286 5.12215 -.38745 10.0698 53.2 120)"/><ellipse fill="#d2ab1e" cx="106" cy="77" rx="104" ry="29"/><ellipse fill="#fff" rx="1" ry="1" transform="matrix(-1.38195 -34.40748 142.20179 -5.71141 105.3 6)"/><ellipse fill="#fff" cx="119" cy="163" rx="166" ry="34"/><path fill="#0000ba" d="M31 135.9l-22 1.2-2-37 22-1.2z"/><path fill="#fff9f2" d="M94 97.2l44.3 20.7-61.6-2.5L22 82.2z"/><path fill="#177700" d="M164 52l-19 1 10 69z"/><ellipse fill="#fff" cx="91" cy="11" rx="113" ry="29"/><path fill="#fff" d="M163 44h7v82h-7z"/><path fill="#4b9100" d="M8 57h15v38H8z"/><path fill="#fff" d="M10 72.6l-4 55.9-16-1.1 4-55.9z"/><ellipse fill="#fff" rx="1" ry="1" transform="matrix(136.99528 -2.1521 .4827 30.7272 90.4 164.3)"/><path fill="#0e12b9" d="M17 99l-5 32 94-4z"/><path fill="#42deff" d="M7 58.5L.7 34.4l18.3-5 6.5 24.2z"/><path fill="#ecf4c1" d="M123.8 52.2l16-5.8 14.4 39.4-16 5.8z"/><path fill="#fff" d="M33 80h44v6H33z"/><path fill="#f9be30" d="M125 51l1 62-53-37z"/><ellipse fill="#36291e" cx="123" cy="127" rx="90" ry="3"/><path fill="#ffd" d="M-3 59l-1 56 22-12z"/><path fill="#2f32f2" d="M64.9 106.7L-16 141.1l51.8-14.6h75z"/><ellipse fill="#b1691f" cx="47" cy="66" rx="25" ry="6"/><path fill="#2e219d" d="M178 137l-29-32-1 16z"/></g></svg>