<svg width="151" height="44" fill="none" xmlns="http://www.w3.org/2000/svg"><path d="M145.681 44H5.679C2.764 44 .402 41.672.402 38.797V5.203C.402 2.328 2.764 0 5.68 0h140.002c2.916 0 5.278 2.328 5.278 5.203v33.594c0 2.875-2.362 5.203-5.278 5.203z" fill="#000"/><path d="M34.017 21.762c-.024-3.54 2.94-5.274 3.084-5.345-1.686-2.424-4.289-2.756-5.229-2.78-2.192-.237-4.313 1.307-5.445 1.307-1.133 0-2.868-1.283-4.723-1.236-2.386.048-4.627 1.402-5.856 3.517-2.53 4.324-.65 10.667 1.783 14.136 1.205 1.71 2.627 3.61 4.482 3.54 1.808-.072 2.482-1.14 4.675-1.14 2.169 0 2.795 1.14 4.699 1.092 1.952-.024 3.18-1.71 4.337-3.445 1.398-1.948 1.952-3.896 1.976-3.991 0 0-3.735-1.402-3.783-5.655zm-3.566-10.43c.964-1.211 1.638-2.827 1.446-4.49-1.422.072-3.181.974-4.193 2.139-.892 1.045-1.711 2.732-1.494 4.324 1.59.118 3.229-.784 4.24-1.972zm29.831 23.331h-2.53l-1.397-4.3h-4.82l-1.325 4.3h-2.458l4.771-14.635h2.964l4.795 14.635zm-4.337-6.106l-1.253-3.825c-.145-.38-.386-1.306-.747-2.756h-.048c-.145.618-.386 1.544-.699 2.756l-1.229 3.825h3.976zm16.603.69c0 1.805-.506 3.206-1.494 4.252-.892.926-1.976 1.402-3.302 1.402-1.421 0-2.433-.5-3.06-1.497v5.535h-2.361V27.56c0-1.116-.024-2.28-.097-3.468h2.097l.144 1.663h.049c.795-1.26 2-1.9 3.614-1.9 1.253 0 2.313.498 3.157 1.472.843 1.022 1.253 2.328 1.253 3.92zm-2.41.094c0-1.021-.24-1.877-.699-2.542-.506-.689-1.205-1.045-2.072-1.045-.578 0-1.109.19-1.59.57-.482.38-.796.879-.94 1.52a3.672 3.672 0 0 0-.12.713v1.758c0 .76.24 1.426.722 1.948.482.523 1.109.785 1.856.785.891 0 1.59-.333 2.096-1.022.506-.665.747-1.568.747-2.685zm14.747-.095c0 1.806-.506 3.207-1.494 4.253-.891.926-1.976 1.402-3.3 1.402-1.423 0-2.435-.5-3.061-1.497v5.535h-2.386V27.56c0-1.116-.024-2.28-.096-3.468h2.096l.145 1.663h.048c.795-1.26 2-1.9 3.614-1.9 1.254 0 2.314.498 3.157 1.472.844 1.022 1.277 2.328 1.277 3.92zm-2.434.095c0-1.021-.24-1.877-.698-2.542-.506-.689-1.205-1.045-2.073-1.045-.578 0-1.108.19-1.59.57-.482.38-.795.879-.94 1.52-.072.286-.12.523-.12.713v1.758c0 .76.24 1.426.723 1.948.482.523 1.108.785 1.855.785.892 0 1.59-.333 2.096-1.022.507-.665.748-1.568.748-2.685zm16.194 1.212c0 1.235-.434 2.257-1.326 3.04-.964.856-2.313 1.284-4.048 1.284-1.59 0-2.868-.309-3.856-.903l.555-1.948c1.036.618 2.192.903 3.446.903.891 0 1.59-.19 2.096-.594.506-.404.747-.927.747-1.592a2.03 2.03 0 0 0-.627-1.497c-.41-.404-1.084-.784-2.048-1.14-2.602-.95-3.903-2.352-3.903-4.205 0-1.212.457-2.186 1.373-2.946.916-.76 2.145-1.14 3.639-1.14 1.35 0 2.482.237 3.373.688l-.602 1.9c-.844-.45-1.783-.664-2.844-.664-.843 0-1.494.213-1.976.617-.385.357-.602.808-.602 1.33 0 .571.217 1.07.675 1.426.385.357 1.108.713 2.168 1.14 1.278.5 2.217 1.094 2.82 1.783.65.665.94 1.496.94 2.518zm7.879-4.68h-2.626v5.131c0 1.307.457 1.948 1.397 1.948.434 0 .771-.023 1.061-.118l.072 1.781c-.458.167-1.085.262-1.856.262-.939 0-1.662-.285-2.192-.855-.531-.57-.796-1.521-.796-2.851v-5.322h-1.566V24.09h1.566v-1.925l2.338-.689v2.637h2.626l-.024 1.758zm11.808 3.42c0 1.616-.482 2.947-1.422 3.992-.988 1.07-2.289 1.616-3.928 1.616-1.566 0-2.819-.523-3.759-1.545-.94-1.021-1.398-2.328-1.398-3.896 0-1.64.482-2.97 1.446-4.015.964-1.046 2.265-1.568 3.88-1.568 1.566 0 2.843.523 3.783 1.544.94.998 1.398 2.305 1.398 3.873zm-2.458.048c0-.974-.217-1.805-.627-2.494-.506-.832-1.205-1.26-2.144-1.26-.964 0-1.687.428-2.193 1.26-.434.689-.627 1.544-.627 2.542 0 .974.217 1.805.627 2.494.506.832 1.229 1.26 2.169 1.26.915 0 1.614-.428 2.144-1.283.434-.713.651-1.545.651-2.519zm10.193-3.183a3.978 3.978 0 0 0-.747-.072c-.844 0-1.494.31-1.928.927-.386.546-.602 1.235-.602 2.09v5.536h-2.386v-7.222c0-1.117-.024-2.21-.072-3.326h2.072l.096 2.02h.073a3.53 3.53 0 0 1 1.18-1.664c.506-.356 1.109-.57 1.711-.57.217 0 .41.024.603.047v2.234zm10.65 2.732c0 .356-.024.713-.096 1.069h-7.133c.025 1.045.362 1.853 1.037 2.4.602.498 1.373.736 2.337.736 1.06 0 2.024-.166 2.892-.499l.361 1.616c-1.012.427-2.217.641-3.59.641-1.663 0-2.964-.475-3.904-1.45-.94-.973-1.422-2.256-1.422-3.872 0-1.591.434-2.922 1.326-3.967.915-1.14 2.168-1.687 3.735-1.687 1.542 0 2.722.57 3.494 1.687.65.902.963 1.995.963 3.326zm-2.265-.618c.024-.689-.144-1.307-.457-1.805-.41-.666-1.037-.975-1.904-.975-.771 0-1.422.31-1.904.95-.385.5-.626 1.117-.699 1.83h4.964zM50.861 14.85c-.65 0-1.23-.024-1.711-.095v-7.08a14.51 14.51 0 0 1 2.024-.143c2.723 0 3.976 1.33 3.976 3.493 0 2.47-1.494 3.825-4.29 3.825zm.385-6.415c-.361 0-.675.024-.94.071v5.37c.145.024.41.024.796.024 1.783 0 2.795-.998 2.795-2.875 0-1.663-.916-2.59-2.65-2.59zm7.808 6.462c-1.543 0-2.53-1.14-2.53-2.66 0-1.592 1.011-2.733 2.626-2.733 1.518 0 2.53 1.07 2.53 2.661 0 1.592-1.06 2.732-2.626 2.732zm.048-4.561c-.844 0-1.398.784-1.398 1.877 0 1.069.554 1.853 1.374 1.853.819 0 1.373-.832 1.373-1.877.024-1.07-.53-1.853-1.35-1.853zm11.35-.737l-1.64 5.18h-1.084l-.674-2.258a19.203 19.203 0 0 1-.434-1.686h-.024c-.097.57-.241 1.14-.434 1.687l-.723 2.256h-1.084l-1.542-5.179h1.204l.603 2.471c.144.594.265 1.14.361 1.663h.025c.096-.427.216-.974.433-1.663l.747-2.47h.964l.723 2.423c.169.594.313 1.164.434 1.71h.024a13.63 13.63 0 0 1 .361-1.71l.65-2.424h1.11zm6.048 5.18h-1.157v-2.97c0-.927-.362-1.378-1.06-1.378-.7 0-1.181.594-1.181 1.259v3.088h-1.18v-3.706c0-.451 0-.95-.049-1.473h1.036l.048.808h.025c.313-.546.963-.903 1.662-.903 1.109 0 1.831.832 1.831 2.186l.025 3.088zm3.229 0h-1.181v-7.58h1.18v7.58zm4.265.118c-1.543 0-2.53-1.14-2.53-2.66 0-1.592 1.012-2.733 2.626-2.733 1.518 0 2.53 1.07 2.53 2.661 0 1.592-1.06 2.732-2.626 2.732zm.048-4.561c-.844 0-1.398.784-1.398 1.877 0 1.069.554 1.853 1.374 1.853.82 0 1.373-.832 1.373-1.877 0-1.07-.53-1.853-1.35-1.853zm7.18 4.442l-.096-.593h-.024c-.361.475-.867.712-1.542.712-.94 0-1.614-.641-1.614-1.52 0-1.283 1.132-1.948 3.084-1.948v-.095c0-.69-.362-1.022-1.084-1.022-.53 0-.964.119-1.374.38l-.24-.76c.481-.309 1.084-.452 1.806-.452 1.374 0 2.073.713 2.073 2.139v1.9c0 .523.024.927.072 1.236l-1.06.024zm-.168-2.59c-1.301 0-1.952.31-1.952 1.046 0 .547.338.808.795.808.603 0 1.157-.451 1.157-1.045v-.808zm6.82 2.59l-.049-.831h-.024c-.337.618-.891.95-1.687.95-1.277 0-2.217-1.093-2.217-2.637 0-1.615.964-2.756 2.314-2.756.699 0 1.205.238 1.494.713h.024V7.199h1.18v6.177c0 .499.025.974.049 1.402h-1.084zm-.17-3.04c0-.737-.481-1.355-1.228-1.355-.868 0-1.398.76-1.398 1.83 0 1.045.554 1.758 1.374 1.758.747 0 1.253-.642 1.253-1.378v-.856zm8.603 3.16c-1.542 0-2.53-1.141-2.53-2.662 0-1.591 1.012-2.732 2.627-2.732 1.518 0 2.53 1.07 2.53 2.661 0 1.592-1.06 2.732-2.627 2.732zm.049-4.562c-.844 0-1.374.784-1.374 1.877 0 1.069.554 1.853 1.374 1.853.819 0 1.373-.832 1.373-1.877-.024-1.07-.554-1.853-1.373-1.853zm8.867 4.442h-1.181v-2.97c0-.926-.361-1.377-1.06-1.377-.699 0-1.157.594-1.157 1.259v3.088h-1.18v-3.706c0-.451 0-.95-.048-1.473h1.036l.048.808h.024c.313-.546.964-.903 1.663-.903 1.108 0 1.831.832 1.831 2.186v3.088h.024zm7.856-4.323h-1.277v2.518c0 .641.216.95.674.95.217 0 .386-.024.53-.047l.024.879c-.216.095-.53.119-.915.119-.916 0-1.47-.5-1.47-1.806v-2.614h-.771v-.855h.771v-.95l1.157-.333v1.283h1.277v.855zm6.193 4.323h-1.157v-2.945c0-.927-.362-1.402-1.06-1.402-.603 0-1.181.404-1.181 1.235v3.136h-1.157V7.2h1.157v3.112h.024c.361-.57.892-.855 1.59-.855 1.109 0 1.784.855 1.784 2.21v3.111zm6.337-2.304h-3.518c.024.974.675 1.544 1.663 1.544.53 0 .988-.095 1.421-.237l.193.807c-.506.214-1.084.31-1.759.31-1.639 0-2.627-1.022-2.627-2.614 0-1.592.988-2.78 2.482-2.78 1.35 0 2.193.974 2.193 2.471 0 .143 0 .309-.048.499zm-1.06-.832c0-.807-.41-1.377-1.157-1.377-.675 0-1.205.57-1.277 1.377h2.434z" fill="#fff"/></svg>