<svg width="17" height="16" fill="none" xmlns="http://www.w3.org/2000/svg"><path d="M15.021 11.28v2a1.336 1.336 0 0 1-.905 1.269 1.335 1.335 0 0 1-.547.064 13.176 13.176 0 0 1-5.748-2.046 12.995 12.995 0 0 1-3.997-4 13.2 13.2 0 0 1-2.045-5.78 1.334 1.334 0 0 1 1.326-1.454h1.998A1.332 1.332 0 0 1 6.435 2.48c.085.64.24 1.268.466 1.873a1.334 1.334 0 0 1-.3 1.407l-.845.847a10.663 10.663 0 0 0 3.996 4l.846-.847a1.332 1.332 0 0 1 1.406-.3 8.548 8.548 0 0 0 1.872.467 1.332 1.332 0 0 1 1.145 1.353z" stroke="#C1C1C1" stroke-width="2" stroke-linecap="round" stroke-linejoin="round"/></svg>