<svg width="16" height="16" fill="none" xmlns="http://www.w3.org/2000/svg"><g clip-path="url(#clip0)" fill-rule="evenodd" clip-rule="evenodd" fill="#fff"><path d="M4.663 14a1.333 1.333 0 1 1 2.665-.001A1.333 1.333 0 0 1 4.663 14zm7.327 0a1.333 1.333 0 1 1 2.665-.001A1.333 1.333 0 0 1 11.99 14zM0 .667C0 .298.298 0 .666 0h2.665c.317 0 .59.224.653.536l.56 2.797H15.32a.666.666 0 0 1 .655.792l-1.067 5.598a2 2 0 0 1-1.991 1.61H6.454a1.997 1.997 0 0 1-1.992-1.61L3.35 4.16a.665.665 0 0 1-.012-.056l-.553-2.77H.666A.666.666 0 0 1 0 .667zm4.81 4l.96 4.796a.667.667 0 0 0 .665.537h6.5a.666.666 0 0 0 .666-.534l.914-4.8H4.81z"/></g><defs><clipPath id="clip0"><path d="M0 0h15.987v16H0V0z" fill="#fff"/></clipPath></defs></svg>