<svg width="18" height="18" fill="none" xmlns="http://www.w3.org/2000/svg"><path fill-rule="evenodd" clip-rule="evenodd" d="M7.565 1.195A.75.75 0 0 1 8.25.75a3 3 0 0 1 3 3V6h3.491a2.25 2.25 0 0 1 2.245 2.588l-1.035 6.75a2.252 2.252 0 0 1-2.245 1.912H3A2.25 2.25 0 0 1 .75 15V9.75A2.25 2.25 0 0 1 3 7.5h1.763l2.802-6.305zM6 8.41l2.706-6.088A1.5 1.5 0 0 1 9.75 3.75v3c0 .414.336.75.75.75h4.254a.75.75 0 0 1 .75.862l-1.035 6.75a.75.75 0 0 1-.75.638H6V8.41zm-1.5 7.34V9H3a.75.75 0 0 0-.75.75V15a.75.75 0 0 0 .75.75h1.5z" fill="#B2DB11"/></svg>