<svg width="17" height="16" viewBox="0 0 17 16" fill="none" xmlns="http://www.w3.org/2000/svg">
<path d="M15.0213 11.28V13.28C15.022 13.4657 14.984 13.6494 14.9097 13.8196C14.8354 13.9897 14.7264 14.1424 14.5897 14.2679C14.453 14.3934 14.2916 14.489 14.1159 14.5485C13.9402 14.6079 13.7539 14.63 13.5692 14.6133C11.5195 14.3904 9.55056 13.6894 7.82068 12.5667C6.21125 11.5431 4.84673 10.1774 3.82404 8.56666C2.6983 6.82747 1.99773 4.84733 1.77909 2.78666C1.76244 2.60231 1.78433 2.41651 1.84337 2.24108C1.9024 2.06566 1.99729 1.90446 2.12198 1.76775C2.24667 1.63103 2.39844 1.5218 2.56762 1.44701C2.7368 1.37222 2.91969 1.33351 3.10464 1.33333H5.10296C5.42623 1.33015 5.73962 1.44472 5.98473 1.65569C6.22984 1.86666 6.38993 2.15963 6.43518 2.48C6.51952 3.12004 6.67594 3.74848 6.90145 4.35333C6.99107 4.59195 7.01047 4.85127 6.95734 5.10058C6.90422 5.3499 6.78079 5.57874 6.6017 5.76L5.75575 6.60666C6.70399 8.27569 8.08476 9.65763 9.75239 10.6067L10.5983 9.76C10.7795 9.58076 11.0081 9.45723 11.2572 9.40406C11.5063 9.35089 11.7654 9.3703 12.0038 9.46C12.6082 9.6857 13.2361 9.84225 13.8756 9.92666C14.1992 9.97235 14.4947 10.1355 14.7059 10.385C14.9172 10.6345 15.0294 10.953 15.0213 11.28Z" stroke="#C1C1C1" stroke-width="2" stroke-linecap="round" stroke-linejoin="round"/>
</svg>
