<svg width="17" height="16" viewBox="0 0 17 16" fill="none" xmlns="http://www.w3.org/2000/svg">
<g clip-path="url(#clip0)">
<path fill-rule="evenodd" clip-rule="evenodd" d="M4.78616 14C4.78616 13.2636 5.38262 12.6667 6.11838 12.6667C6.85414 12.6667 7.45059 13.2636 7.45059 14C7.45059 14.7364 6.85414 15.3333 6.11838 15.3333C5.38262 15.3333 4.78616 14.7364 4.78616 14Z" fill="#7B7B7B"/>
<path fill-rule="evenodd" clip-rule="evenodd" d="M12.1133 14C12.1133 13.2636 12.7098 12.6667 13.4456 12.6667C14.1813 12.6667 14.7778 13.2636 14.7778 14C14.7778 14.7364 14.1813 15.3333 13.4456 15.3333C12.7098 15.3333 12.1133 14.7364 12.1133 14Z" fill="#7B7B7B"/>
<path fill-rule="evenodd" clip-rule="evenodd" d="M0.123413 0.666667C0.123413 0.298477 0.421639 0 0.78952 0H3.45395C3.77143 0 4.04479 0.224257 4.1071 0.535829L4.66655 3.33333H15.4439C15.6424 3.33333 15.8306 3.42195 15.9571 3.57504C16.0836 3.72812 16.1354 3.92972 16.0982 4.12489L15.0315 9.72322C14.9401 10.1836 14.6898 10.5972 14.3245 10.8915C13.961 11.1844 13.5066 11.3406 13.0401 11.3333H6.57709C6.11063 11.3406 5.65623 11.1844 5.29272 10.8915C4.92754 10.5973 4.67734 10.1839 4.58588 9.72378C4.58584 9.72359 4.58592 9.72397 4.58588 9.72378L3.47312 4.15947C3.46861 4.14106 3.46486 4.12236 3.46191 4.10338L2.90795 1.33333H0.78952C0.421639 1.33333 0.123413 1.03486 0.123413 0.666667ZM4.93319 4.66667L5.89246 9.46346C5.92291 9.61692 6.00633 9.75478 6.12811 9.85289C6.24989 9.951 6.40226 10.0031 6.55857 10.0001L6.57133 10H13.0459L13.0587 10.0001C13.215 10.0031 13.3673 9.951 13.4891 9.85289C13.6103 9.75523 13.6935 9.6182 13.7243 9.4656L14.6387 4.66667H4.93319Z" fill="#7B7B7B"/>
</g>
<defs>
<clipPath id="clip0">
<path d="M0.123413 0H16.11V16H0.123413V0Z" fill="white"/>
</clipPath>
</defs>
</svg>
