<svg width="16" height="16" viewBox="0 0 16 16" fill="none" xmlns="http://www.w3.org/2000/svg">
<path fill-rule="evenodd" clip-rule="evenodd" d="M8.26197 2.00001C4.95104 2.00001 2.26701 4.6863 2.26701 8C2.26701 11.3137 4.95104 14 8.26197 14C11.5729 14 14.2569 11.3137 14.2569 8C14.2569 4.6863 11.5729 2.00001 8.26197 2.00001ZM0.934792 8C0.934792 3.94992 4.21528 0.666672 8.26197 0.666672C12.3087 0.666672 15.5891 3.94992 15.5891 8C15.5891 12.0501 12.3087 15.3333 8.26197 15.3333C4.21528 15.3333 0.934792 12.0501 0.934792 8Z" fill="#7B7B7B"/>
<path fill-rule="evenodd" clip-rule="evenodd" d="M8.26197 3.33334C8.62985 3.33334 8.92807 3.63181 8.92807 4V7.58798L11.2243 8.73705C11.5533 8.90171 11.6867 9.30216 11.5222 9.63148C11.3577 9.9608 10.9575 10.0943 10.6285 9.92962L7.96408 8.59629C7.73841 8.48336 7.59586 8.25252 7.59586 8V4C7.59586 3.63181 7.89409 3.33334 8.26197 3.33334Z" fill="#7B7B7B"/>
</svg>
