<svg width="16" height="16" viewBox="0 0 16 16" fill="none" xmlns="http://www.w3.org/2000/svg">
<g clip-path="url(#clip0)">
<path fill-rule="evenodd" clip-rule="evenodd" d="M4.6626 14C4.6626 13.2636 5.25905 12.6667 5.99481 12.6667C6.73057 12.6667 7.32703 13.2636 7.32703 14C7.32703 14.7364 6.73057 15.3333 5.99481 15.3333C5.25905 15.3333 4.6626 14.7364 4.6626 14Z" fill="white"/>
<path fill-rule="evenodd" clip-rule="evenodd" d="M11.9897 14C11.9897 13.2636 12.5862 12.6667 13.322 12.6667C14.0577 12.6667 14.6542 13.2636 14.6542 14C14.6542 14.7364 14.0577 15.3333 13.322 15.3333C12.5862 15.3333 11.9897 14.7364 11.9897 14Z" fill="white"/>
<path fill-rule="evenodd" clip-rule="evenodd" d="M0 0.666667C0 0.298477 0.298226 0 0.666107 0H3.33053C3.64802 0 3.92138 0.224257 3.98369 0.535829L4.54314 3.33333H15.3205C15.519 3.33333 15.7071 3.42195 15.8337 3.57504C15.9602 3.72812 16.012 3.92972 15.9748 4.12489L14.9081 9.72322C14.8167 10.1836 14.5664 10.5972 14.2011 10.8915C13.8376 11.1844 13.3832 11.3406 12.9167 11.3333H6.45367C5.98722 11.3406 5.53282 11.1844 5.16931 10.8915C4.80413 10.5973 4.55393 10.1839 4.46247 9.72378C4.46243 9.72359 4.46251 9.72397 4.46247 9.72378L3.34971 4.15947C3.3452 4.14106 3.34145 4.12236 3.3385 4.10338L2.78454 1.33333H0.666107C0.298226 1.33333 0 1.03486 0 0.666667ZM4.80978 4.66667L5.76905 9.46346C5.7995 9.61692 5.88292 9.75478 6.0047 9.85289C6.12647 9.951 6.27885 10.0031 6.43515 10.0001L6.44792 10H12.9225L12.9352 10.0001C13.0915 10.0031 13.2439 9.951 13.3657 9.85289C13.4869 9.75523 13.5701 9.6182 13.6009 9.4656L14.5153 4.66667H4.80978Z" fill="white"/>
</g>
<defs>
<clipPath id="clip0">
<path d="M0 0H15.9866V16H0V0Z" fill="white"/>
</clipPath>
</defs>
</svg>
