<svg xmlns="http://www.w3.org/2000/svg" viewBox="0 0 113 115"><filter id="b"><feGaussianBlur stdDeviation="12" /></filter><path fill="#9ba6ac" d="M0 0h113v115H0z"/><g filter="url(#b)" transform="translate(.5 .5)" fill-opacity=".5"><ellipse cx="58" cy="112" rx="39" ry="32"/><ellipse fill="#fff" cy="62" rx="22" ry="92"/><ellipse fill="#fff" cx="112" cy="64" rx="20" ry="91"/><ellipse fill="#efb149" cx="58" cy="53" rx="24" ry="37"/><ellipse fill="#0053b6" rx="1" ry="1" transform="rotate(90.8 23.8 34.8) scale(11.64549 38.31011)"/><path fill="#000d5e" d="M24 61.4l22 1.2-2 36-22-1.2z"/><path fill="#00042b" d="M78 60h15v55H78z"/><ellipse fill="#fff" cx="3" cy="67" rx="19" ry="87"/><ellipse fill="#fff" cx="110" cy="65" rx="17" ry="89"/><path fill="#0060ba" d="M87 47L98 1 57 2z"/><path fill="#0064c7" d="M23 1l27 3-28 62z"/><ellipse fill="#000025" rx="1" ry="1" transform="matrix(13.57077 15.97864 -27.49051 23.34788 61.8 114)"/><ellipse fill="#e9ffff" cx="54" cy="84" rx="8" ry="13"/><ellipse fill="#e8a470" rx="1" ry="1" transform="matrix(-7.67195 20.4349 -19.4121 -7.28796 57.2 37)"/><path fill="#fcde46" d="M68 46h15v33H68z"/><ellipse fill="#fff" cx="112" cy="45" rx="19" ry="80"/><ellipse fill="#fff" cx="4" cy="63" rx="18" ry="79"/><path fill="#084b88" d="M28 64l5 15 30-11z"/><ellipse fill="#10112d" rx="1" ry="1" transform="rotate(-16.5 389.7 -84.7) scale(22.67535 12.17733)"/><ellipse fill="#0070d0" cx="90" cy="53" rx="3" ry="22"/><path fill="#900021" d="M38.1 39.7l5.9-18 1.9.6-5.9 18z"/><path fill="#e5dd58" d="M58.9 43.5l-.8 22-27-1 .8-22z"/></g></svg>