<svg xmlns="http://www.w3.org/2000/svg" viewBox="0 0 750 412"><filter id="b"><feGaussianBlur stdDeviation="12" /></filter><path fill="#e6b4b4" d="M0 0h750v410H0z"/><g filter="url(#b)" transform="translate(1.5 1.5) scale(2.92969)" fill-opacity=".5"><ellipse fill="#ab0000" rx="1" ry="1" transform="matrix(245.97154 1.25069 -.15068 29.6343 124.7 69.2)"/><ellipse fill="#fff" rx="1" ry="1" transform="matrix(-153.5107 -3.18255 .52566 -25.35532 131 122.6)"/><ellipse fill="#fff" cx="110" cy="13" rx="190" ry="27"/><path fill="#fffbf7" d="M245 64l-49-15-9 40z"/><path fill="#a90000" d="M21.5 46.7l-7 70.6L-7 27.4l70 21.4z"/><path fill="#fff" d="M20.5 57h19v28h-19zM139 85l14-40-47 40z"/><path fill="#bf0000" d="M232 34h22v72h-22z"/><ellipse fill="#ad0000" rx="1" ry="1" transform="matrix(-21.6209 27.85252 -11.58804 -8.99538 162.5 69)"/><ellipse fill="#fff" cx="128" cy="12" rx="175" ry="28"/><ellipse fill="#fff" cx="131" cy="131" rx="175" ry="34"/><ellipse fill="#efcbc7" cx="74" cy="73" rx="16" ry="24"/><ellipse fill="#84160e" cx="131" cy="92" rx="234" ry="6"/><path fill="#b00" d="M11 25.8L.3 108.4l-16.3-.9 37.2-1z"/><path fill="#910000" d="M145 40h108v10H145z"/><ellipse fill="#b4a8a3" cx="64" cy="90" rx="44" ry="6"/><ellipse fill="#f2bebd" cx="213" cy="67" rx="30" ry="13"/><path fill="#efffff" d="M71 46h15v14H71z"/><path fill="#dd0003" d="M98 59H78l40 38z"/><path fill="#dfcbc4" d="M143 77l-35-40 44 18z"/><path fill="#cd0000" d="M67 54L44 75l-2 23z"/><path fill="#fff" d="M3.8 26.6l-4.6 87-3-.2 4.6-87z"/></g></svg>