<svg xmlns="http://www.w3.org/2000/svg" viewBox="0 0 581 420"><filter id="b"><feGaussianBlur stdDeviation="12" /></filter><path fill="#e1c268" d="M0 0h581v419H0z"/><g filter="url(#b)" transform="translate(1.1 1.1) scale(2.26953)" fill-opacity=".5"><ellipse fill="#a75e16" cx="135" cy="119" rx="79" ry="79"/><ellipse fill="#ffffba" rx="1" ry="1" transform="matrix(53.01711 -205.00122 46.6994 12.07733 13.5 80.7)"/><ellipse fill="#003900" rx="1" ry="1" transform="rotate(-124 133.5 38.8) scale(14.0065 45.60718)"/><ellipse fill="#ffffa3" cx="220" cy="30" rx="52" ry="52"/><ellipse fill="#ffffa1" cx="250" cy="129" rx="49" ry="49"/><path d="M154 63.3l-8.8-25.5 20.8-7.1 8.8 25.5z"/><ellipse fill="#faf9dd" cx="110" cy="184" rx="23" ry="35"/><ellipse fill="#5b0019" rx="1" ry="1" transform="rotate(48 -47.4 256.4) scale(35.9155 11.58664)"/><ellipse fill="#ffbd00" rx="1" ry="1" transform="matrix(52.96619 -24.76399 9.02576 19.30466 142.4 89.4)"/><path fill="#ffff9b" d="M-7-6.6l244.7-34.3 7.2 51.5L.3 44.9z"/><ellipse fill="#dcb4c1" rx="1" ry="1" transform="matrix(-14.53798 6.55477 -10.8558 -24.07734 157.5 141.5)"/><ellipse fill="#ade200" cx="70" cy="103" rx="17" ry="21"/><ellipse fill="#5f2517" cx="80" cy="48" rx="11" ry="11"/><path fill="#ef0000" d="M115.9 115.7L87.3 172l-7.2-3.6 28.6-56.2z"/><ellipse fill="#ea868d" rx="1" ry="1" transform="matrix(-29.39199 19.5922 -10.87276 -16.3112 108.4 57)"/><path fill="#130000" d="M91 96L65 73l39 13z"/><path fill="#ca0000" d="M45 158h14v17H45z"/><ellipse fill="#ffee90" rx="1" ry="1" transform="matrix(4.86275 7.38466 -48.99664 32.26399 63.6 135.4)"/><path fill="#622f00" d="M207 72l-18 68-6-51z"/><ellipse fill="#c89300" rx="1" ry="1" transform="matrix(-12.78888 10.00442 -8.00423 -10.232 100 184)"/><path fill="#3d3a15" d="M169 135h32v35h-32z"/><ellipse fill="#fff788" rx="1" ry="1" transform="matrix(-17.68032 -194.27397 21.9022 -1.99326 229.8 105.4)"/></g></svg>