<svg xmlns="http://www.w3.org/2000/svg" viewBox="0 0 591 420"><filter id="b"><feGaussianBlur stdDeviation="12" /></filter><path fill="#a19149" d="M0 0h591v417H0z"/><g filter="url(#b)" transform="translate(1.2 1.2) scale(2.3086)" fill-opacity=".5"><ellipse fill="#00c46c" rx="1" ry="1" transform="matrix(76.63348 -33.16227 22.60941 52.24727 124 158.9)"/><ellipse fill="#ffffe2" cx="77" cy="19" rx="53" ry="54"/><ellipse fill="#ff3900" rx="1" ry="1" transform="matrix(37.09395 -31.236 69.39782 82.41256 225 75.8)"/><path fill="#fd8929" d="M131.6 145.6L74.9 118 128.4 8.4 185.1 36z"/><ellipse fill="#00b849" cx="140" cy="180" rx="56" ry="56"/><ellipse fill="#d42e00" cx="223" cy="154" rx="25" ry="95"/><path fill="#6b2305" d="M-16 172L-5 25l53 135z"/><path fill="#0069ff" d="M156 81l42 39-42 5z"/><ellipse fill="#00d76d" cx="81" cy="160" rx="34" ry="34"/><ellipse fill="#fff" cx="132" rx="20" ry="20"/><ellipse fill="#ffff98" rx="1" ry="1" transform="matrix(-9.11955 14.1466 -61.65997 -39.74882 255 13.6)"/><ellipse fill="#3e8500" rx="1" ry="1" transform="matrix(10.94944 13.61836 -24.77162 19.91689 80.6 108.9)"/><ellipse fill="#cde3c6" cx="117" cy="127" rx="18" ry="18"/><ellipse fill="#d1ec1b" cx="66" cy="91" rx="27" ry="21"/><ellipse fill="#f1e8c6" rx="1" ry="1" transform="matrix(36.38613 -23.5226 12.65327 19.57281 69.1 50.1)"/><ellipse fill="#00a232" rx="1" ry="1" transform="matrix(2.66895 33.17191 -37.26468 2.99824 161.8 161)"/><ellipse fill="#ae8d69" rx="1" ry="1" transform="rotate(106.7 69.1 173.3) scale(38.16683 27.24633)"/><ellipse fill="#ff732d" rx="1" ry="1" transform="matrix(12.8898 11.6127 -22.40272 24.86642 131.2 38)"/><ellipse fill="#efa600" rx="1" ry="1" transform="matrix(17.10372 -2.5257 2.98712 20.22833 137 99)"/><ellipse fill="#e4a259" rx="1" ry="1" transform="matrix(18.9891 29.05417 -14.07096 9.19643 165.3 68.4)"/><path fill="#920000" d="M95 87h26v20H95z"/><path fill="#bdac5e" d="M29 60h97v26H29z"/></g></svg>