<svg xmlns="http://www.w3.org/2000/svg" viewBox="0 0 591 420"><filter id="b"><feGaussianBlur stdDeviation="12" /></filter><path fill="#a19149" d="M0 0h591v417H0z"/><g filter="url(#b)" transform="translate(1.2 1.2) scale(2.3086)" fill-opacity=".5"><ellipse fill="#00ca64" cx="124" cy="154" rx="78" ry="49"/><ellipse fill="#ffffe6" rx="1" ry="1" transform="matrix(-38.50644 -27.75846 53.87875 -74.74041 93.9 0)"/><ellipse fill="#ff3800" rx="1" ry="1" transform="matrix(-38.43924 19.0814 -51.96064 -104.67402 212.5 61.1)"/><ellipse fill="#00905f" cx="167" cy="147" rx="35" ry="49"/><ellipse fill="#fd8736" rx="1" ry="1" transform="matrix(32.14114 15.11191 -31.96503 67.98561 137.5 66.8)"/><ellipse fill="#00d26b" rx="1" ry="1" transform="matrix(-15.2237 35.92813 -42.92905 -18.19017 92.8 171)"/><ellipse fill="#d82700" cx="217" cy="165" rx="20" ry="87"/><ellipse fill="#611a00" cy="123" rx="29" ry="49"/><ellipse fill="#247eff" cx="171" cy="112" rx="20" ry="20"/><ellipse fill="#ffff9f" rx="1" ry="1" transform="matrix(42.97475 28.55236 -13.28848 20.00077 246.9 0)"/><ellipse fill="#84b200" cx="71" cy="102" rx="32" ry="23"/><ellipse fill="#00b33a" rx="1" ry="1" transform="rotate(-45.1 273.4 -107.2) scale(63.88278 22.39901)"/><ellipse fill="#dfd4af" cx="117" cy="123" rx="24" ry="14"/><path fill="maroon" d="M95 87h28v19H95z"/><ellipse fill="#ff6315" cx="225" cy="43" rx="118" ry="20"/><ellipse fill="#f7ffde" rx="1" ry="1" transform="rotate(162 35.2 26.3) scale(37.90596 16.87439)"/><ellipse fill="#d7c437" cx="56" cy="85" rx="23" ry="26"/><path fill="#f4fffe" d="M155-16L84 21l65-10z"/><path fill="#c7b100" d="M121 71h31v43h-31z"/><path fill="#dcb36d" d="M165.9 35.3l18.7 36L192 112l-41.1-28.6z"/><path fill="#050" d="M54.4 117.4l20.6-3.6 2.6 14.8-20.6 3.6z"/><ellipse fill="#da3100" rx="1" ry="1" transform="rotate(64.2 47.4 233.5) scale(39.03898 20.30158)"/></g></svg>