<svg xmlns="http://www.w3.org/2000/svg" viewBox="0 0 171 170"><filter id="b"><feGaussianBlur stdDeviation="12" /></filter><path fill="#a5b3d3" d="M0 0h171v170H0z"/><g filter="url(#b)" transform="translate(.5 .5)" fill-opacity=".5"><ellipse fill="#0f429f" rx="1" ry="1" transform="matrix(15.55207 -152.26822 39.70421 4.05523 93.8 119.5)"/><ellipse fill="#fff" cx="15" cy="99" rx="19" ry="170"/><ellipse fill="#e0490d" rx="1" ry="1" transform="matrix(18.73278 -2.95472 9.95549 63.11737 53.8 118.1)"/><ellipse fill="#fff" cx="158" cy="101" rx="24" ry="170"/><ellipse fill="#1a92ff" cx="55" cy="26" rx="20" ry="54"/><path fill="#f20000" d="M77.2 159.8l-9.7-7.1 29.3-40.5 9.7 7.1z"/><path fill="#fffef7" d="M49 36h69v20H49z"/><ellipse fill="#0086ff" cx="101" cy="99" rx="35" ry="21"/><ellipse fill="#fff" cx="157" cy="65" rx="21" ry="170"/><ellipse fill="#fff" cx="7" cy="79" rx="27" ry="170"/><path fill="#ff3500" d="M54 81l28-13-33 62z"/><ellipse fill="#0085ff" cx="73" cy="111" rx="9" ry="23"/><path fill="#0093ff" d="M93 93l44-2-3-85z"/><path fill="#002bbf" d="M41 160h80v9H41z"/><ellipse fill="#ff2a00" cx="130" cy="128" rx="5" ry="19"/><path fill="#ff822f" d="M62.4 111.8l4 45.8-28.8 2.6-4-45.8z"/><path fill="#30c3ff" d="M134-4.3l-8.3 33L84 18.3l8.3-33z"/><path fill="#fff" d="M156 9l30 145-61 31z"/><path fill="#a80000" d="M89 115l19-2-30 40z"/><ellipse fill="#fff" cx="8" cy="160" rx="27" ry="170"/><path fill="#0077f5" d="M59.3 55.2L84.7 54l-18 25L31 72z"/><path fill="#ff4b00" d="M110 23l5 11-37-13z"/></g></svg>