<svg xmlns="http://www.w3.org/2000/svg" viewBox="0 0 171 170"><filter id="b"><feGaussianBlur stdDeviation="12" /></filter><path fill="#d9dcd2" d="M0 0h171v170H0z"/><g filter="url(#b)" transform="translate(.5 .5)" fill-opacity=".5"><ellipse fill="#000500" cx="83" cy="86" rx="36" ry="28"/><ellipse fill="#fff" cx="121" cy="169" rx="54" ry="54"/><ellipse fill="#fff" cx="117" cy="6" rx="170" ry="31"/><ellipse fill="#fff" cx="59" cy="156" rx="170" ry="22"/><path fill="#b1aa83" d="M151 125l-108 2-9-32z"/><ellipse fill="#2c5e35" cx="79" cy="82" rx="29" ry="28"/><path fill="#fff" d="M52 185L-7-16l2 190z"/><ellipse fill="#fff" rx="1" ry="1" transform="matrix(19.0291 152.0312 -22.7939 2.85302 165.4 60.6)"/><ellipse fill="#bdb590" rx="1" ry="1" transform="matrix(63.72987 6.02917 -1.2701 13.42528 87.4 53.4)"/><path fill="#aaa276" d="M109.6 132.3l-9.2-4.1 26-58.5 9.2 4.1z"/><ellipse fill="#fff" cx="98" cy="11" rx="121" ry="19"/><path fill="#c3bcad" d="M105 79v10H59V79z"/><ellipse fill="#fff" cx="52" cy="169" rx="36" ry="36"/><path fill="#cac4a9" d="M128 135l11-43-87 31z"/><ellipse fill="#d4d0b0" cx="120" cy="54" rx="22" ry="22"/><ellipse fill="#194324" rx="1" ry="1" transform="matrix(-.08248 9.24487 -24.68682 -.22026 84 99.1)"/><ellipse fill="#c5cab1" rx="1" ry="1" transform="matrix(-6.03237 23.66594 -19.34026 -4.92977 34.7 105.9)"/><path fill="#1e1915" d="M8 74h2v12H8z"/><path fill="#1d5636" d="M106.6 83.7l-1.1 18.9 14.1-17.9L88 50.2z"/><ellipse fill="#fff" cx="167" cy="19" rx="12" ry="130"/><ellipse fill="#194830" cx="81" cy="71" rx="23" ry="9"/><path fill="#e8dcc6" d="M78 127l4-15-26-11z"/></g></svg>