<svg xmlns="http://www.w3.org/2000/svg" viewBox="0 0 171 170"><filter id="b"><feGaussianBlur stdDeviation="12" /></filter><path fill="#d5d1b2" d="M0 0h171v170H0z"/><g filter="url(#b)" transform="translate(.5 .5)" fill-opacity=".5"><ellipse fill="#732b00" rx="1" ry="1" transform="rotate(87.3 -25.7 93.2) scale(31.26406 57.53184)"/><ellipse fill="#fff" rx="1" ry="1" transform="matrix(2.77747 -34.86916 71.53983 5.69843 124.7 59.6)"/><ellipse fill="#fff" cx="14" cy="69" rx="127" ry="14"/><ellipse fill="#fff" cx="166" cy="110" rx="34" ry="34"/><ellipse fill="#9cc501" rx="1" ry="1" transform="matrix(79.63101 1.00363 -.0891 7.06987 81 17.5)"/><ellipse fill="#fff" rx="1" ry="1" transform="matrix(104.05784 -1.81634 .16135 9.24361 83.2 176.2)"/><ellipse fill="#fff" cy="64" rx="14" ry="100"/><path fill="#3e2714" d="M34 109l47 32-63-11z"/><path fill="#96c000" d="M10 151h154v9H10z"/><path fill="#0d5fb4" d="M27.8 60l-2.4-7.7L52.2 44l2.4 7.6z"/><ellipse fill="#fff" cx="120" cy="1" rx="146" ry="9"/><path fill="#9d3826" d="M55 148l-40-10 81-24z"/><path fill="#fff" d="M186 185L169-16l-24 133z"/><path fill="#bbd0b5" d="M124 37h34v59h-34z"/><path fill="#fff" d="M111 69L71 25 28 85z"/><ellipse fill="#6eb387" cx="111" cy="41" rx="32" ry="4"/><path fill="#f6fbff" d="M158 118l-92 32 55-2z"/><ellipse fill="#53869c" cx="52" cy="43" rx="10" ry="10"/><ellipse fill="#fff" cx="104" cy="65" rx="38" ry="20"/><path fill="#aac733" d="M9 10h31v16H9z"/><ellipse fill="#fff" cx="111" cy="166" rx="139" ry="7"/><path fill="#ffea56" d="M62.3 104.3L73.2 121l-13.5 8.7L48.8 113z"/></g></svg>