<svg xmlns="http://www.w3.org/2000/svg" viewBox="0 0 171 170"><filter id="b"><feGaussianBlur stdDeviation="12" /></filter><path fill="#b3b1b2" d="M0 0h171v170H0z"/><g filter="url(#b)" transform="translate(.5 .5)" fill-opacity=".5"><ellipse fill="#010002" cx="77" cy="84" rx="54" ry="61"/><ellipse fill="#fff" rx="1" ry="1" transform="matrix(38.97155 11.9148 -49.70319 162.5718 161.3 90.8)"/><ellipse fill="#fff" rx="1" ry="1" transform="matrix(25.27796 20.19394 -30.73832 38.47699 12.8 33.9)"/><ellipse fill="#fff" cx="122" cy="7" rx="44" ry="30"/><ellipse fill="#332a27" rx="1" ry="1" transform="matrix(-27.52737 21.97285 -10.51246 -13.1699 33 132)"/><ellipse fill="#fff" cx="125" cy="155" rx="61" ry="23"/><ellipse fill="#322c36" cx="107" cy="95" rx="27" ry="27"/><path fill="#fff" d="M10 23l-26 115 31-3z"/><ellipse fill="#fff" cx="155" cy="93" rx="22" ry="170"/><ellipse fill="#fff" cx="27" rx="34" ry="34"/><ellipse fill="#fff" cx="58" cy="169" rx="170" ry="15"/><ellipse fill="#fff" rx="1" ry="1" transform="matrix(-10.45633 16.99666 -144.79388 -89.07712 115.4 13.5)"/><ellipse fill="#231a21" rx="1" ry="1" transform="matrix(-1.5814 12.66286 -9.55664 -1.19348 62 147)"/><ellipse fill="#494248" cx="71" cy="42" rx="29" ry="29"/><path fill="#2d252a" d="M119 48h19v17h-19z"/><path fill="#fff" d="M82 185l1.3-16.8-7.3-38-8.5 2.1z"/><path fill="#4e474c" d="M21 53h46v92H21z"/><ellipse fill="#2e2732" rx="1" ry="1" transform="matrix(9.39818 .06739 -.14418 20.10923 86 129.2)"/><ellipse fill="#fff" cy="23" rx="39" ry="39"/><ellipse fill="#fff" rx="1" ry="1" transform="rotate(166.5 -5.2 50) scale(27.91772 8.17068)"/><ellipse fill="#fff" rx="1" ry="1" transform="matrix(12.1993 19.46309 -61.77178 38.71805 143.4 133.5)"/><path fill="#fefcfb" d="M111.7 125.5l31 15.4L102 113l-16.5-7.5z"/></g></svg>