<svg xmlns="http://www.w3.org/2000/svg" viewBox="0 0 171 170"><filter id="b"><feGaussianBlur stdDeviation="12" /></filter><path fill="#d9dcd2" d="M0 0h171v170H0z"/><g filter="url(#b)" transform="translate(.5 .5)" fill-opacity=".5"><ellipse fill="#001400" cx="81" cy="84" rx="33" ry="33"/><ellipse fill="#fff" rx="1" ry="1" transform="matrix(-169.83903 7.39614 -1.774 -40.73673 112.4 169)"/><ellipse fill="#fffffd" cx="117" cy="2" rx="62" ry="62"/><path fill="#345c38" d="M49 68h73v40H49z"/><ellipse fill="#fff" rx="1" ry="1" transform="matrix(-.87314 -20.83255 153.23287 -6.42236 56.8 13.7)"/><path fill="#bbb88f" d="M25 37h128v24H25z"/><path fill="#bfb38f" d="M124.7 105.5l1.4 21-86.8 6-1.4-21z"/><ellipse fill="#fff" cx="161" cy="104" rx="21" ry="162"/><ellipse fill="#cdc8a7" cx="122" cy="57" rx="22" ry="22"/><ellipse fill="#fff" rx="1" ry="1" transform="matrix(-15.03255 .84045 -8.67547 -155.17214 0 104)"/><ellipse fill="#fff" rx="1" ry="1" transform="matrix(-120.28046 -2.35578 .508 -25.93724 92 160.9)"/><path fill="#bfb9aa" d="M59 79h46v10H59z"/><path fill="#d7ceb6" d="M50.7 87.4l-61.1-21.6 100.2 52-28.2 17.8z"/><ellipse fill="#fff" cx="101" cy="10" rx="117" ry="20"/><path fill="#c7c6a9" d="M119 70h38v40h-38z"/><path fill="#d1cfba" d="M124.5 29.8L.9 81.2 38.2 103l16.4-33.2z"/><path fill="#063e28" d="M52 63l63 11-45 6z"/><ellipse fill="#18482f" rx="1" ry="1" transform="matrix(17.1548 -12.8856 4.63426 6.16966 101.7 95.8)"/><path fill="#1d4426" d="M81 110l35-20-67-2z"/><path fill="#c9c0a1" d="M137 113l-70 7 72-31z"/><ellipse fill="#fff" cx="170" cy="54" rx="13" ry="129"/><path fill="#b9b498" d="M39 76l-5 50 41 3z"/></g></svg>