<svg xmlns="http://www.w3.org/2000/svg" viewBox="0 0 171 170"><filter id="b"><feGaussianBlur stdDeviation="12" /></filter><path fill="#b3b1b2" d="M0 0h171v170H0z"/><g filter="url(#b)" transform="translate(.5 .5)" fill-opacity=".5"><ellipse fill="#020004" cx="74" cy="83" rx="53" ry="64"/><ellipse fill="#fff" rx="1" ry="1" transform="rotate(-175.6 77.6 44.2) scale(27.38008 169.99998)"/><ellipse fill="#fff" cx="12" cy="20" rx="40" ry="40"/><ellipse fill="#fff" rx="1" ry="1" transform="matrix(-14.59324 26.8552 -111.1853 -60.4186 139.5 17)"/><ellipse fill="#fff" cx="135" cy="169" rx="52" ry="52"/><ellipse fill="#33281e" rx="1" ry="1" transform="matrix(-8.62221 -14.15037 18.79367 -11.4515 26.7 140)"/><path fill="#fff" d="M178 129l8 53-202-15z"/><path fill="#3f3942" d="M131 110l6-68-127 83z"/><ellipse fill="#fff" rx="1" ry="1" transform="matrix(11.74897 -.36064 1.2141 39.55272 5.4 92.6)"/><ellipse fill="#fff" rx="1" ry="1" transform="matrix(-19.74399 -16.01915 85.36496 -105.21439 8.7 38.2)"/><path fill="#fff" d="M186 6l-60 65 54 114zM96 185l-25-62-2 57z"/><ellipse fill="#080007" cx="60" cy="147" rx="8" ry="12"/><ellipse fill="#fff" rx="1" ry="1" transform="rotate(-56.3 64.5 -98) scale(20.00489 92.56942)"/><path fill="#3d363c" d="M38.4 92.2l-17.2-21-11.8 9-.2 8.2z"/><path fill="#fff" d="M-9 163l-7-84 44 13z"/><path fill="#fff" d="M-8.4 160.8l25.6-8.8 5.2 15.2-25.6 8.8z"/><path fill="#2a2531" d="M49 114l-25.5 9-6.5-19 25.5-8.8z"/><ellipse fill="#fff" rx="1" ry="1" transform="matrix(-49.18703 54.31845 -13.6794 -12.38712 126.7 141)"/><ellipse fill="#4c4348" rx="1" ry="1" transform="matrix(26.09185 3.62054 -1.48825 10.72524 65.4 35.8)"/><ellipse fill="#fff" rx="1" ry="1" transform="matrix(-68.82624 88.5857 -18.07883 -14.04627 24.3 17.3)"/><ellipse fill="#fffffe" rx="1" ry="1" transform="matrix(-31.1635 -29.32656 1.93076 -2.0517 124.8 135.9)"/></g></svg>