<svg xmlns="http://www.w3.org/2000/svg" viewBox="0 0 171 170"><filter id="b"><feGaussianBlur stdDeviation="12" /></filter><path fill="#f9eee3" d="M0 0h171v170H0z"/><g filter="url(#b)" transform="translate(.5 .5)" fill-opacity=".5"><ellipse fill="#e19951" cx="85" cy="93" rx="42" ry="42"/><ellipse fill="#740000" cx="26" cy="104" rx="10" ry="11"/><ellipse fill="#df9557" cx="122" cy="98" rx="22" ry="22"/><ellipse fill="#fff" rx="1" ry="1" transform="matrix(-169.98594 -2.18606 .30663 -23.84304 70.2 148.4)"/><ellipse fill="#fff" cx="119" cy="5" rx="64" ry="64"/><ellipse fill="#fff" cx="35" cy="36" rx="41" ry="41"/><ellipse fill="#e5b179" rx="1" ry="1" transform="matrix(-16.73237 -14.63101 22.80627 -26.0818 59 92.7)"/><path fill="#e1a97a" d="M124 132.4l-31-20.2 25-38.6 31 20.2z"/><ellipse fill="#fff" rx="1" ry="1" transform="rotate(-109.1 96.7 -25.4) scale(144.06806 23.72865)"/><ellipse fill="#fff" rx="1" ry="1" transform="matrix(9.94682 -70.83103 17.07268 2.39752 6.6 70)"/><ellipse fill="#6f1500" cx="84" cy="82" rx="5" ry="5"/><path fill="#500801" d="M95 108h5v14h-5z"/><ellipse fill="#fff6cd" cx="127" cy="110" rx="11" ry="11"/><path fill="#8a2504" d="M139 106l-1-12h-13z"/><path fill="#fff" d="M-14-4l200-12L-1 103z"/><path fill="#fff6d3" d="M89.7 61.8l-40.4 39.8-15.1 11.2 13.3-25.5z"/><ellipse fill="#fff" rx="1" ry="1" transform="rotate(-85 138 22) scale(30.17185 170.00001)"/><path fill="#ac603c" d="M49.5 125.8l8.9-21.3-12.2-2.6 2.2-.5z"/><path fill="#8b3838" d="M20.6 98.5l14 1-1.2 18-14-1z"/><path fill="#eb8724" d="M37 80h9v12h-9z"/><path fill="#ffe8ca" d="M66 95h14v42H66z"/><path fill="#e5a05f" d="M67.4 61.3l21.2 5.4-3.5 39.6 7.1-54z"/></g></svg>