<svg xmlns="http://www.w3.org/2000/svg" viewBox="0 0 171 170"><filter id="b"><feGaussianBlur stdDeviation="12" /></filter><path fill="#a2958b" d="M0 0h171v170H0z"/><g filter="url(#b)" transform="translate(.5 .5)" fill-opacity=".5"><ellipse rx="1" ry="1" transform="rotate(1.4 -3994.9 1965.4) scale(28.01122 69.66865)"/><ellipse fill="#fff" rx="1" ry="1" transform="matrix(-.84485 111.53112 -20.71935 -.15695 170 90.1)"/><ellipse fill="#008a20" cx="128" cy="31" rx="23" ry="23"/><ellipse fill="#fff" cx="8" cy="130" rx="15" ry="168"/><ellipse fill="#f80000" cx="43" cy="23" rx="22" ry="19"/><ellipse fill="#fff" cx="157" cy="126" rx="78" ry="26"/><ellipse fill="#010712" cx="99" cy="157" rx="51" ry="7"/><path fill="#a6492a" d="M80 46h71v42H80z"/><ellipse cx="62" cy="88" rx="14" ry="34"/><ellipse fill="#fff" cx="74" cy="36" rx="21" ry="9"/><path fill="#ff8d00" d="M84 147L68 85.6l5.1 25.7-28.5 41.6z"/><ellipse fill="#fff" cx="162" cy="36" rx="11" ry="170"/><ellipse fill="#fff" cx="2" cy="82" rx="15" ry="170"/><ellipse fill="#1d111a" cx="30" cy="97" rx="10" ry="69"/><ellipse fill="#009948" cx="124" cy="33" rx="28" ry="14"/><ellipse fill="#fff" cx="100" rx="121" ry="6"/><path fill="#a11400" d="M90 107.5l20.4-22 11.7 11-20.5 22z"/><path fill="#ffffe3" d="M91.2 147l-16-28 3-58.7 19.6 94.3z"/><ellipse fill="#edf8ff" cx="86" cy="169" rx="147" ry="5"/><path fill="#fff" d="M75 12h38v8H75z"/><ellipse fill="#415848" cx="149" cy="58" rx="3" ry="73"/><ellipse fill="#f70014" rx="1" ry="1" transform="matrix(4.74992 10.5378 -19.56154 8.81737 43.2 29.5)"/></g></svg>