<svg xmlns="http://www.w3.org/2000/svg" viewBox="0 0 171 170"><filter id="b"><feGaussianBlur stdDeviation="12" /></filter><path fill="#d5d1b2" d="M0 0h171v170H0z"/><g filter="url(#b)" transform="translate(.5 .5)" fill-opacity=".5"><ellipse fill="#763100" cx="61" cy="119" rx="40" ry="40"/><ellipse fill="#f9ffff" cx="100" cy="55" rx="170" ry="31"/><ellipse fill="#8c5b19" cx="101" cy="112" rx="28" ry="23"/><ellipse fill="#fff" rx="1" ry="1" transform="matrix(10.6866 -17.45114 87.94818 53.85706 154 99.3)"/><ellipse fill="#97b867" cx="37" cy="33" rx="26" ry="26"/><ellipse fill="#fff" cx="123" cy="1" rx="166" ry="9"/><ellipse fill="#fff" rx="1" ry="1" transform="matrix(126.1415 -3.82167 .26282 8.67502 58 169)"/><ellipse fill="#a4c910" rx="1" ry="1" transform="matrix(.02493 7.95023 -67.46344 .21151 96 17.6)"/><path fill="#68371a" d="M15 92l-2 38 69 12z"/><ellipse fill="#aad720" cx="35" cy="155" rx="161" ry="5"/><ellipse fill="#fff" rx="1" ry="1" transform="matrix(4.18971 -91.2325 14.04714 .6451 0 94.5)"/><ellipse fill="#efffff" cx="68" cy="148" rx="72" ry="3"/><ellipse fill="#fff" cx="170" cy="67" rx="11" ry="118"/><path fill="#b4cb33" d="M8 9h56v16H8z"/><path fill="#fcff60" d="M57.4 106l-17.8 7.6L74.1 124l-3.3-7.6z"/><path fill="#2260bb" d="M58 48L27 59l27-26z"/><ellipse fill="#b6ccac" rx="1" ry="1" transform="matrix(-3.597 -29.36263 12.79819 -1.56781 143.7 64.4)"/><path fill="#fff" d="M26 25h93v12H26zm-2 33h95v24H24z"/><path fill="#d7402c" d="M130 139h25v8h-25z"/><path fill="#ca8148" d="M40 81.5l57 3-1 20-57-3z"/><ellipse fill="#f2f0fb" rx="1" ry="1" transform="matrix(-1.78278 -4.58712 59.97226 -23.3082 132.8 129.1)"/></g></svg>