<svg xmlns="http://www.w3.org/2000/svg" viewBox="0 0 171 170"><filter id="b"><feGaussianBlur stdDeviation="12" /></filter><path fill="#a5b3d3" d="M0 0h171v170H0z"/><g filter="url(#b)" transform="translate(.5 .5)" fill-opacity=".5"><path fill="#0039a0" d="M129 162l5-178L26 185z"/><ellipse fill="#df4305" rx="1" ry="1" transform="matrix(-11.537 -76.16815 18.08683 -2.73957 54.6 129.7)"/><ellipse fill="#fff" rx="1" ry="1" transform="matrix(-24.26243 -1.70653 10.1373 -144.12587 160.6 68.8)"/><ellipse fill="#fff" cx="14" cy="103" rx="20" ry="170"/><ellipse fill="#367ada" cx="71" cy="12" rx="38" ry="75"/><ellipse fill="#ec0f00" rx="1" ry="1" transform="matrix(19.38414 -21.5352 6.24643 5.6225 82.4 140)"/><ellipse fill="#0085fb" rx="1" ry="1" transform="rotate(-118.1 78.3 18.5) scale(20.58993 39.11162)"/><path fill="#cc1300" d="M48.7 86.7L98.5 59l6.8 12.2L55.5 99z"/><ellipse fill="#fff" rx="1" ry="1" transform="matrix(-3.29547 155.19871 -26.93737 -.57198 6.8 110)"/><path fill="#f3e4ec" d="M122 60L35 45l76-16z"/><ellipse fill="#fff" cx="158" cy="9" rx="23" ry="170"/><ellipse fill="#1a96ff" cx="119" cy="45" rx="16" ry="87"/><ellipse fill="#bd2504" rx="1" ry="1" transform="matrix(2.67313 -26.78126 4.709 .47002 131.5 120.3)"/><path fill="#0046d4" d="M108.5 169L50 182.5 45.5 163l58.5-13.5z"/><path fill="#850000" d="M86.5 114l20.8-2-23.7 45.7 2.1-28.9z"/><ellipse fill="#0080ff" cx="56" cy="68" rx="18" ry="9"/><path fill="#ffb191" d="M103 25h13v33h-13z"/><ellipse fill="#ff8432" cx="51" cy="138" rx="18" ry="22"/><ellipse fill="#fff" rx="1" ry="1" transform="matrix(.32256 -3.34993 22.59725 2.17587 69.2 37.8)"/><ellipse fill="#fff" rx="1" ry="1" transform="matrix(-12.97638 35.63552 -20.54774 -7.48229 151.4 156.2)"/><ellipse fill="#fff" cx="11" cy="169" rx="25" ry="170"/><path fill="#ff3500" d="M57 127l-8-50 25-1z"/></g></svg>