<svg xmlns="http://www.w3.org/2000/svg" viewBox="0 0 921 553"><filter id="b"><feGaussianBlur stdDeviation="12" /></filter><path fill="#e1d3c2" d="M0 0h921v550H0z"/><g filter="url(#b)" transform="translate(1.8 1.8) scale(3.59766)" fill-opacity=".5"><ellipse fill="#aa640c" rx="1" ry="1" transform="matrix(40.2303 -93.8643 21.21925 9.09458 199.6 101.8)"/><ellipse fill="#dc3200" rx="1" ry="1" transform="matrix(.8494 -31.48627 14.15378 .38182 147.8 89.7)"/><ellipse fill="#f2ffff" cx="24" cy="56" rx="116" ry="116"/><path fill="#901300" d="M196.5 101.6l-17.1 26 6.5 25.1 34.7-46.3z"/><ellipse fill="#92b900" cx="208" cy="15" rx="19" ry="9"/><path fill="azure" d="M181 78l90 46V76z"/><ellipse fill="#e6733a" cx="164" cy="13" rx="18" ry="14"/><path fill="#fff" d="M196.9 26.8l18.7 41.8L226.9 50l-12.2-25.4z"/><path fill="#abcc00" d="M228 43h23v27h-23z"/><ellipse fill="#f5ffff" cx="250" cy="128" rx="34" ry="34"/><ellipse fill="#bd0000" rx="1" ry="1" transform="rotate(-136.5 90.2 20.5) scale(10.18231 14.01008)"/><ellipse fill="#e8f7ff" rx="1" ry="1" transform="matrix(-33.27741 24.20356 -10.24441 -14.08502 118.5 140.4)"/><ellipse fill="#bbff5c" cx="163" cy="138" rx="19" ry="17"/><path fill="#c72258" d="M217 11h23v26h-23z"/><ellipse fill="#f8915f" cx="195" cy="60" rx="16" ry="19"/><path fill="#74911f" d="M168.7 79.2l-5 .5 50.4 48 9-29.7z"/><ellipse fill="#ffdb00" cx="146" cy="69" rx="11" ry="11"/><path fill="#c10030" d="M132.2 42.5l5.3 6.3 13-.8-7.5-10.7z"/><path fill="#8fa500" d="M233.2 55l8.2 8.8L218.8 85l-8.2-8.8z"/><path fill="#e9eaf2" d="M3-16l144 96-154 88z"/><path fill="#f6f5ff" d="M240 27h16v21h-16z"/><ellipse fill="#9c0000" cx="188" cy="136" rx="7" ry="14"/></g></svg>