<svg xmlns="http://www.w3.org/2000/svg" viewBox="0 0 461 437"><filter id="b"><feGaussianBlur stdDeviation="12" /></filter><path fill="#bbb29f" d="M0 0h461v435H0z"/><g filter="url(#b)" transform="translate(.9 .9) scale(1.80078)" fill-opacity=".5"><ellipse fill="#745e2a" rx="1" ry="1" transform="matrix(40.86658 -71.10236 87.99856 50.57778 143.3 75.2)"/><ellipse fill="#fff" rx="1" ry="1" transform="matrix(-254.99962 -.44015 .06478 -37.53082 78.6 198.2)"/><ellipse fill="#fff" cx="131" cy="94" rx="76" ry="9"/><ellipse fill="#fff" rx="1" ry="1" transform="rotate(-75.1 115.3 -143) scale(24.9256 48.2798)"/><ellipse fill="#fff" rx="1" ry="1" transform="rotate(170.9 -.3 88.3) scale(19.99082 123.05853)"/><ellipse fill="#fff" cx="125" cy="24" rx="54" ry="7"/><ellipse fill="#fff" rx="1" ry="1" transform="matrix(18.96423 -126.89265 21.57233 3.224 246.5 170.2)"/><ellipse fill="#fff" rx="1" ry="1" transform="matrix(-7.19826 -20.19742 46.93946 -16.729 31.2 9.4)"/><ellipse fill="#000315" cx="70" cy="191" rx="4" ry="189"/><path fill="#000100" d="M28.4 30.6l-44.4 20 67.6-11.7 36.7-23.2z"/><ellipse cx="120" cy="3" rx="46" ry="12"/><ellipse fill="#775200" cx="37" cy="76" rx="28" ry="23"/><ellipse fill="#934e00" rx="1" ry="1" transform="matrix(64.7877 27.902 -7.66836 17.80573 171 63.7)"/><ellipse cx="181" cy="200" rx="3" ry="255"/><path fill="#000e00" d="M268.2 43.5l-85-24.3 7.7 14.3L246.4 51z"/><ellipse fill="#5a4228" cx="109" cy="152" rx="79" ry="10"/><path d="M83 235h92v6H83z"/><ellipse fill="#fff" rx="1" ry="1" transform="matrix(28.74307 6.32624 -1.52038 6.90782 215.4 105.2)"/><path fill="#2a2212" d="M135 84l69-1L65 37z"/><path fill="#7b0000" d="M107 183l11 15-38 4z"/><path fill="#fff" d="M184 35.7l44.4 12-2.3 8.6-44.5-12z"/><ellipse fill="#fff" rx="1" ry="1" transform="matrix(-8.5847 -15.23976 52.32669 -29.4761 219.6 230.1)"/></g></svg>