<svg xmlns="http://www.w3.org/2000/svg" viewBox="0 0 170 170"><filter id="b"><feGaussianBlur stdDeviation="12" /></filter><path fill="#e3e1c7" d="M0 0h170v170H0z"/><g filter="url(#b)" transform="translate(.5 .5)" fill-opacity=".5"><ellipse fill="#898312" rx="1" ry="1" transform="matrix(-156.47968 -3.13005 .66906 -33.44827 56.5 81.9)"/><path fill="#0034ff" d="M164 105l-42 14 63-71z"/><ellipse fill="#fff" cx="59" cy="2" rx="52" ry="52"/><ellipse fill="#3b60ef" cx="61" cy="93" rx="23" ry="23"/><ellipse fill="#fff" cx="42" cy="143" rx="169" ry="30"/><ellipse fill="#ffd41d" cx="114" cy="79" rx="36" ry="29"/><ellipse fill="#fff" cx="121" rx="53" ry="53"/><ellipse fill="#ded400" rx="1" ry="1" transform="matrix(-6.20994 26.9145 -20.7917 -4.79724 23.4 78.6)"/><ellipse fill="#fff" rx="1" ry="1" transform="matrix(25.90728 -27.1624 24.74255 23.59924 14.6 21.3)"/><path fill="#0000fe" d="M21 106h65v8H21z"/><path fill="#fff" d="M-16 156l45 29L-3 36z"/><path fill="#fde500" d="M25 53h80v17H25z"/><ellipse fill="#fff" cx="138" cy="144" rx="31" ry="31"/><path fill="#003af1" d="M151.4 112.7l-13.8-4.3-37.8-1-12.2 9.6z"/><ellipse fill="#fff" cx="127" cy="28" rx="169" ry="24"/><ellipse fill="#fff" cx="169" cy="104" rx="4" ry="163"/><ellipse fill="#fff" cx="63" cy="156" rx="43" ry="43"/><path fill="#0128bc" d="M30.9 93.4l-10.8 2-3-16.8 10.8-2z"/><path fill="#0039cb" d="M146 74h20v32h-20z"/><path fill="#f3d32c" d="M79.1 110.5l22.4-11L185 61.3 82.3 53z"/><path fill="#fff" d="M171 99l9 86-155-9z"/><path fill="#819fe7" d="M77.3 67l2.5 11.7L40.7 87l-2.5-11.7z"/></g></svg>