<svg xmlns="http://www.w3.org/2000/svg" viewBox="0 0 170 170"><filter id="b"><feGaussianBlur stdDeviation="12" /></filter><path fill="#d7d2c7" d="M0 0h170v170H0z"/><g filter="url(#b)" transform="translate(.5 .5)" fill-opacity=".5"><path fill="#0000b7" d="M10 134l144-7L5 92z"/><ellipse fill="#d1ac21" rx="1" ry="1" transform="rotate(-89.4 89.1 -11.9) scale(28.02023 105.06803)"/><ellipse fill="#fff" rx="1" ry="1" transform="rotate(-179.5 40.5 6.5) scale(118.92668 27.60738)"/><ellipse fill="#fff" rx="1" ry="1" transform="matrix(128.3227 12.87705 -3.70817 36.95278 117.1 169)"/><ellipse fill="#0806ab" cx="138" cy="123" rx="134" ry="7"/><ellipse fill="#5e8607" cx="151" cy="82" rx="10" ry="35"/><path fill="#fff" d="M185 133l-19-93-5 79z"/><path fill="#ffeeb4" d="M29 80h77v28H29z"/><ellipse fill="#7aa335" rx="1" ry="1" transform="matrix(-1.25273 26.6452 -12.13239 -.5704 19 75.6)"/><ellipse fill="#fff" rx="1" ry="1" transform="rotate(90.8 -46.2 46.9) scale(53.0679 8.80622)"/><ellipse fill="#fff" cx="97" cy="12" rx="122" ry="28"/><path fill="#0000bc" d="M36 130l-8-37-27 45z"/><ellipse fill="#faca5b" cx="121" cy="80" rx="31" ry="29"/><path fill="#fff" d="M121.2 115.5l-33.2.4-50.4-13 65.3-4.5z"/><ellipse fill="#fff" rx="1" ry="1" transform="rotate(9.8 -872.3 471) scale(54.25917 23.43141)"/><path fill="#39d6ff" d="M8 35h15v27H8z"/><path fill="#ffc" d="M-3.1 92.6l28.5 2.6-9.2 10.2-17.2 7.1z"/><ellipse fill="#fff" cx="141" cy="157" rx="28" ry="28"/><ellipse fill="#93b100" cx="83" cy="87" rx="6" ry="10"/><path fill="#f1fffd" d="M127 16h14v57h-14z"/><path fill="#309300" d="M151 55h11v40h-11z"/><path fill="#4bd0f7" d="M176 29l-28 8 3 17z"/></g></svg>