<svg xmlns="http://www.w3.org/2000/svg" viewBox="0 0 170 170"><filter id="b"><feGaussianBlur stdDeviation="12" /></filter><path fill="#e5e2cc" d="M0 0h170v170H0z"/><g filter="url(#b)" transform="translate(.5 .5)" fill-opacity=".5"><ellipse fill="#5d4200" cx="50" cy="95" rx="45" ry="37"/><ellipse fill="#a47c00" cx="41" cy="94" rx="37" ry="35"/><ellipse fill="#fff" cx="128" cy="169" rx="65" ry="65"/><ellipse fill="#fff" cx="43" cy="16" rx="168" ry="44"/><ellipse fill="#fff" cx="82" cy="150" rx="166" ry="22"/><path fill="#3c8200" d="M51 65h35v25H51z"/><path fill="#b6b88a" d="M82 129l59-48-54-15z"/><ellipse fill="#fff" rx="1" ry="1" transform="matrix(-30.72683 162.61713 -23.62201 -4.46343 159 106.2)"/><ellipse fill="#fff" cx="54" cy="15" rx="106" ry="39"/><ellipse fill="#d34e00" cx="35" cy="93" rx="21" ry="25"/><ellipse fill="#a7cb38" cx="68" cy="109" rx="19" ry="19"/><path fill="#801e03" d="M12 78l54 52-32-9z"/><ellipse fill="#d8c9aa" rx="1" ry="1" transform="rotate(73.7 17.3 116.2) scale(26.55833 29.77258)"/><path fill="#ffc429" d="M62.3 122l-39-33.4 40.4 2.6-4.4 20.8z"/><ellipse fill="#fff" rx="1" ry="1" transform="rotate(-178.8 38 83.8) scale(122.64896 30.71721)"/><path fill="#f0f2dd" d="M87 80h11v33H87z"/><path fill="#8aa427" d="M79 61l-37 9 76 7z"/><ellipse fill="#fff" rx="1" ry="1" transform="matrix(-5.76029 -31.02597 21.1862 -3.93343 0 49)"/><ellipse fill="#aedb1a" rx="1" ry="1" transform="matrix(-4.85407 8.2597 -5.8307 -3.42659 34.4 64.5)"/><ellipse fill="#6bb101" rx="1" ry="1" transform="matrix(-7.82986 3.4391 -6.88288 -15.6704 77.7 87)"/><path fill="#3a3610" d="M50.7 84.8l38.2-.3-57.1-11.1 15.5-11.8z"/><ellipse fill="#9ec0a4" rx="1" ry="1" transform="rotate(-171.8 22.2 64) scale(29.7222 5.93574)"/></g></svg>