<svg xmlns="http://www.w3.org/2000/svg" viewBox="0 0 170 170"><filter id="b"><feGaussianBlur stdDeviation="12" /></filter><path fill="#ddccb0" d="M0 0h170v170H0z"/><g filter="url(#b)" transform="translate(.5 .5)" fill-opacity=".5"><ellipse fill="#d95300" cx="85" cy="34" rx="58" ry="19"/><ellipse fill="#fff" cx="9" cy="73" rx="18" ry="169"/><ellipse fill="#c89511" cx="86" cy="145" rx="58" ry="21"/><ellipse fill="#fff" rx="1" ry="1" transform="matrix(-23.64649 1.42596 -10.1728 -168.69355 169 92.4)"/><ellipse fill="#899fad" cx="80" cy="75" rx="56" ry="29"/><path fill="#ffd200" d="M85.2 73.1l-17.3-5 5-17.2 17.2 5z"/><ellipse fill="#d27b06" cx="57" cy="28" rx="24" ry="20"/><path fill="#006734" d="M98 118h17v9H98z"/><ellipse fill="#fff" rx="1" ry="1" transform="matrix(30.51634 1.6527 -8.65 159.7176 0 54.6)"/><path fill="#fff" d="M138 184l47-18L159-3z"/><ellipse fill="#fff" cx="85" cy="2" rx="146" ry="5"/><path fill="#7c5935" d="M138 77h8v54h-8z"/><ellipse fill="#ff9b10" cx="119" cy="27" rx="24" ry="18"/><ellipse fill="#9b9089" cx="41" cy="100" rx="16" ry="31"/><path fill="#fff" d="M88 57h25v18H88zM67 176l-83-59 9 68z"/><path fill="#ff7a00" d="M55 6h53v5H55z"/><path fill="#4887c1" d="M50.9 99.2l1.2-24 29 1.6-1.2 24z"/><ellipse fill="#ecfffb" rx="1" ry="1" transform="matrix(5.96524 2.03073 -11.94972 35.10207 124 109.7)"/><path fill="#bb6023" d="M37.2 146.3l89.2 18.5L65 168l-34-15.6z"/><ellipse fill="#4987c6" cx="98" cy="95" rx="33" ry="5"/><path fill="#54503e" d="M30 46h80v5H30z"/></g></svg>