<svg xmlns="http://www.w3.org/2000/svg" viewBox="0 0 170 170"><filter id="b"><feGaussianBlur stdDeviation="12" /></filter><path fill="#9ca7ae" d="M0 0h170v170H0z"/><g filter="url(#b)" transform="translate(.5 .5)" fill-opacity=".5"><ellipse cx="87" cy="158" rx="57" ry="40"/><ellipse fill="#fff" cy="77" rx="50" ry="50"/><ellipse fill="#fff" cx="158" cy="90" rx="20" ry="113"/><path fill="#fff" d="M35 168.3l-64 2.3-6-169L29-.5z"/><ellipse fill="#0047b1" cx="83" cy="16" rx="60" ry="15"/><ellipse fill="#a89660" cx="86" cy="77" rx="53" ry="53"/><ellipse fill="#000025" rx="1" ry="1" transform="matrix(12.34545 11.24225 -32.2631 35.42906 106.1 146.8)"/><ellipse fill="#0b4587" cx="49" cy="98" rx="15" ry="161"/><ellipse fill="#ffe355" cx="69" cy="76" rx="25" ry="22"/><ellipse fill="#0062ca" cx="128" cy="29" rx="14" ry="44"/><path fill="#fff" d="M70 107h23v29H70z"/><ellipse fill="#fff" rx="1" ry="1" transform="rotate(91.9 46.3 112.3) scale(169 19.88678)"/><ellipse fill="#fff" rx="1" ry="1" transform="rotate(-50.1 161.6 69) scale(33.00684 26.72291)"/><ellipse fill="#12041c" cx="56" cy="159" rx="27" ry="27"/><ellipse fill="#ffd639" rx="1" ry="1" transform="matrix(-14.51633 1.59005 -3.38745 -30.92575 108.2 92.4)"/><path fill="#1270be" d="M125 16h14v101h-14z"/><ellipse fill="#fff" cx="12" cy="88" rx="21" ry="117"/><path fill="#000024" d="M143.7 185l-37.5-13.7 30-51.2 10.5 64.9z"/><ellipse fill="#fb917b" cx="86" cy="46" rx="28" ry="23"/><ellipse fill="#208cde" cx="45" cy="12" rx="15" ry="63"/><path fill="#091a56" d="M35 108h32v37H35z"/><ellipse fill="#fff" cx="165" cy="91" rx="25" ry="145"/></g></svg>