<svg xmlns="http://www.w3.org/2000/svg" viewBox="0 0 170 170"><filter id="b"><feGaussianBlur stdDeviation="12" /></filter><path fill="#bc9e8d" d="M0 0h170v170H0z"/><g filter="url(#b)" transform="translate(.5 .5)" fill-opacity=".5"><path fill="#a80a04" d="M162 103l-149-1 74-82z"/><ellipse fill="#fff" rx="1" ry="1" transform="rotate(90.5 33.3 37.6) scale(16.99833 168.70137)"/><ellipse fill="#fff" cx="72" cy="161" rx="169" ry="10"/><ellipse fill="#4b4848" rx="1" ry="1" transform="matrix(-52.73885 -5.17109 1.9182 -19.56323 78.5 128.8)"/><ellipse fill="#fff" cx="45" cy="6" rx="169" ry="14"/><ellipse fill="#a10000" rx="1" ry="1" transform="matrix(34.68939 1.33611 -.63987 16.6129 90.7 55.3)"/><ellipse fill="#094be7" rx="1" ry="1" transform="matrix(-.03306 5.81294 -76.58178 -.4356 87.9 118.1)"/><ellipse fill="#fff" cx="74" cy="169" rx="169" ry="17"/><path fill="#939062" d="M11 24h46v68H11z"/><ellipse fill="#9d5300" rx="1" ry="1" transform="matrix(-35.0578 1.11328 -.35876 -11.2975 90.9 138.8)"/><path fill="#86a172" d="M21 20h124v20H21z"/><ellipse fill="#c5b095" cx="74" cy="77" rx="57" ry="6"/><path fill="#ced1ac" d="M.4 129.5L-31.3 102-.4 66.5 31.3 94z"/><ellipse fill="#beae67" rx="1" ry="1" transform="matrix(-9.98674 -52.65366 14.06656 -2.66798 158.7 85.5)"/><path fill="#a40000" d="M40.9 96.6L29.5 73.2l3.6-1.8 11.4 23.4z"/><ellipse fill="#c7c8a3" rx="1" ry="1" transform="matrix(-.91872 -14.88562 6.78879 -.419 124.6 74.3)"/><ellipse fill="#fff" rx="1" ry="1" transform="matrix(.70516 -14.38163 126.4276 6.19901 89.2 6)"/><path fill="#fff" d="M-.5 153.5h169v31H-.5z"/><ellipse fill="#c6b182" cx="93" cy="127" rx="145" ry="5"/><path fill="#e6eff1" d="M-16 113L1 29l9 144z"/><ellipse fill="#ae0710" cx="72" cy="58" rx="22" ry="14"/><ellipse fill="#c8b39c" cx="50" cy="85" rx="5" ry="27"/></g></svg>