<svg xmlns="http://www.w3.org/2000/svg" viewBox="0 0 170 170"><filter id="b"><feGaussianBlur stdDeviation="12" /></filter><path fill="#dfd6c5" d="M0 0h170v170H0z"/><g filter="url(#b)" transform="translate(.5 .5)" fill-opacity=".5"><ellipse fill="#7e5302" cx="87" cy="113" rx="33" ry="133"/><ellipse fill="#fff" cx="30" cy="108" rx="49" ry="49"/><ellipse fill="#d83e00" cx="85" cy="51" rx="32" ry="25"/><ellipse fill="#fff" cx="20" cy="62" rx="33" ry="169"/><ellipse fill="#fff" rx="1" ry="1" transform="matrix(-4.4239 -168.94209 35.26207 -.92337 155 95)"/><ellipse fill="#0083ff" cx="87" cy="10" rx="29" ry="10"/><path fill="#93b2fc" d="M51 74h71v35H51z"/><ellipse fill="#b19c05" cx="83" cy="143" rx="34" ry="22"/><path fill="#6a0800" d="M50 60h64v14H50z"/><ellipse fill="#fff" cx="150" cy="24" rx="41" ry="41"/><ellipse fill="#feff65" cx="75" cy="126" rx="20" ry="22"/><ellipse fill="#fff" cx="61" rx="88" ry="8"/><ellipse fill="#fff" cx="146" cy="124" rx="26" ry="169"/><ellipse fill="#fff" rx="1" ry="1" transform="matrix(28.75599 1.31267 -2.14763 47.04697 30.5 25)"/><path fill="#d87100" d="M108.3 63.7l-43 1.5-1.6-45 43-1.4z"/><path fill="#fff" d="M10 164h160v6H10z"/><path fill="#004195" d="M59 8h45v16H59z"/><ellipse fill="#8c4c11" rx="1" ry="1" transform="rotate(163.7 39 84.7) scale(19.17202 12.73118)"/><path fill="#6c4c4a" d="M104 60h17v34h-17z"/><ellipse fill="#fff" cx="41" cy="107" rx="34" ry="11"/><path fill="#5d8a3c" d="M94 116h23v32H94z"/><path fill="#fff" d="M57 74h35v6H57z"/></g></svg>