<svg xmlns="http://www.w3.org/2000/svg" viewBox="0 0 170 170"><filter id="b"><feGaussianBlur stdDeviation="12" /></filter><path fill="#e3e1c7" d="M0 0h170v170H0z"/><g filter="url(#b)" transform="translate(.5 .5)" fill-opacity=".5"><ellipse fill="#847c02" rx="1" ry="1" transform="rotate(90.5 1 83.4) scale(31.14291 139.86079)"/><ellipse fill="#0031ff" rx="1" ry="1" transform="rotate(-145.7 90.2 24.7) scale(11.35669 25.94388)"/><ellipse fill="#3b62fb" cx="61" cy="92" rx="21" ry="25"/><ellipse fill="#fff" cx="94" cy="147" rx="169" ry="34"/><ellipse fill="#fff" cx="53" cy="4" rx="49" ry="49"/><ellipse fill="#fff" rx="1" ry="1" transform="matrix(.38728 -29.75306 59.71373 .77727 127 24)"/><ellipse fill="#ffed01" cx="82" cy="65" rx="94" ry="13"/><path fill="#0000f1" d="M21 104h59v10H21z"/><ellipse fill="#00f" cx="119" cy="111" rx="29" ry="3"/><ellipse fill="#fff" cx="1" cy="55" rx="4" ry="168"/><ellipse fill="#ffc741" cx="115" cy="85" rx="34" ry="24"/><ellipse fill="#fff" cx="25" cy="20" rx="169" ry="32"/><path fill="#8b9df8" d="M44.3 94.5L39.9 77l37.8-9.5L82.1 85z"/><ellipse fill="#fff" cx="111" cy="143" rx="169" ry="30"/><path fill="#fff" d="M166 43h4v127h-4z"/><path fill="#cac300" d="M2.1 81.4l24-28.6L46 103.3l-35.9 3z"/><path fill="#0038e9" d="M168 70l-3 31-37 14z"/><path fill="#314d93" d="M31 93.9l-12.9 2-3-19.8 12.8-2z"/><path fill="#0002e4" d="M56 113l-34-2 19-8z"/><path fill="#ffe817" d="M79 59h17v52H79z"/><path fill="#fff" d="M104.2 43l15.2-52.8L233.8 23l-15.2 52.8z"/><path fill="#c2681d" d="M112.2 85.6l-46 9 15.6-1.2 49.2 14.4z"/></g></svg>