<svg xmlns="http://www.w3.org/2000/svg" viewBox="0 0 595 420"><filter id="b"><feGaussianBlur stdDeviation="12" /></filter><path fill="#9e9b86" d="M0 0h595v418H0z"/><g filter="url(#b)" transform="translate(1.2 1.2) scale(2.32422)" fill-opacity=".5"><ellipse cx="246" cy="93" rx="24" ry="255"/><ellipse cx="14" cy="112" rx="19" ry="255"/><ellipse fill="#fff" rx="1" ry="1" transform="matrix(96.15243 4.02998 -3.1526 75.21854 126.3 32.8)"/><ellipse fill="#fffffc" rx="1" ry="1" transform="matrix(5.05116 -137.7527 28.87169 1.05868 194.2 130.1)"/><ellipse cx="7" cy="70" rx="26" ry="255"/><ellipse cx="244" cy="104" rx="23" ry="185"/><ellipse fill="#ab6e20" rx="1" ry="1" transform="matrix(-57.8214 .90833 -.64808 -41.2547 110.2 127.7)"/><ellipse fill="#fff" rx="1" ry="1" transform="matrix(-2.32614 -181.55542 10.80178 -.1384 44.3 116)"/><ellipse fill="#ffffd9" rx="1" ry="1" transform="rotate(165.9 47.2 96.7) scale(82.90002 27.91625)"/><ellipse fill="#fff" rx="1" ry="1" transform="rotate(-103.9 85.9 -10.8) scale(14.45029 89.19196)"/><ellipse fill="#9fc500" cx="124" cy="18" rx="87" ry="9"/><ellipse cx="240" cy="124" rx="18" ry="255"/><ellipse rx="1" ry="1" transform="matrix(18.01694 .745 -4.8919 118.30586 13.6 114.1)"/><ellipse fill="#fff" cx="134" cy="57" rx="33" ry="33"/><ellipse fill="#f2f8e8" cx="195" cy="99" rx="28" ry="48"/><path fill="#8e6334" d="M175.9 115.6l7 16.4L45 144l113.5-44z"/><path fill="#9cc804" d="M50 159h161v10H50z"/><path fill="#fff" d="M223 81.5h-16V.5h16z"/><ellipse fill="#fff" cx="139" cy="177" rx="84" ry="9"/><path fill="#693525" d="M52.7 103.3l-1.2 21.2L93 158l32.2-5.5z"/><path fill="#ffffe5" d="M33 147h44v33H33z"/><path fill="#fff" d="M226 10l-91-26L44 7z"/></g></svg>