<svg xmlns="http://www.w3.org/2000/svg" viewBox="0 0 53 54"><filter id="b"><feGaussianBlur stdDeviation="12" /></filter><path fill="#fbfbfb" d="M0 0h53v54H0z"/><g filter="url(#b)" transform="translate(.5 .5)"><ellipse fill="#f9f9f9" fill-opacity=".5" cx="26" cy="26" rx="25" ry="25"/><path fill="#fff" fill-opacity=".5" d="M2.8 39L28 65l-44-17.6L6.3-16zM26-10l42 39-13-43z"/><path fill="#fff" fill-opacity=".5" d="M68 59l-43.2-2.8 23-9.5L61 4.8z"/><path fill="#fff" fill-opacity=".5" d="M20.7.8l-21 11.8L.2-16 68 5zm54.4 40.7L43 77.2 28.9 64.5 61 28.8zM19.4 54.3l-5 7.5-29.8-20.1 5-7.5z"/><path fill="#f9f9f9" fill-opacity=".5" d="M1.3 35.2l-6-3.5 7.4-13 6 3.6z"/><path fill="#fff" fill-opacity=".5" d="M66.8-11.9L68 40.6 40.8 2.2 3.6-1z"/><path fill="#fff" fill-opacity=".5" d="M11.5 2.9L51.7-7.4-.9-16-16 36.4zM68 57.3l-34-3.8-46.5 1.4 19.6-3.1z"/><path fill="#fff" fill-opacity=".5" d="M45.2 49.3l-24.1 8L68 53.6l-10.1-29zM3.5 42.2L28.7 69h-39L-16 5.8z"/><ellipse fill="#fafafa" fill-opacity=".5" rx="1" ry="1" transform="rotate(62.1 -4.4 28.7) scale(17.04746 23.52455)"/><path fill="#fff" fill-opacity=".5" d="M52.3 14.7l1.3 11.6L56.8-5l-30.4-9z"/><ellipse fill="#fafafa" fill-opacity=".5" cx="16" cy="27" rx="16" ry="23"/><ellipse fill="#fafafa" fill-opacity=".5" cx="35" cy="17" rx="14" ry="14"/><ellipse fill="#fafafa" fill-opacity=".5" cx="26" cy="26" rx="26" ry="26"/><path fill="#fff" fill-opacity=".5" d="M-3 13.9L-11.5-1 11-14l8.5 15zm49.5-6.2L68 50.4 42-7.3 26.8-3.8z"/><path stroke="#fff" stroke-opacity=".5" fill="none" d="M-.4 38.8q10 13 21.2 14.7" stroke-width=".5"/><path fill="#fff" fill-opacity=".5" d="M8-4L0 19 1 1z"/></g></svg>