<svg width="14" height="15" viewBox="0 0 14 15" fill="none" xmlns="http://www.w3.org/2000/svg">
<path fill-rule="evenodd" clip-rule="evenodd" d="M12.7803 1.71967C13.0732 2.01256 13.0732 2.48744 12.7803 2.78033L2.28033 13.2803C1.98744 13.5732 1.51256 13.5732 1.21967 13.2803C0.926777 12.9874 0.926777 12.5126 1.21967 12.2197L11.7197 1.71967C12.0126 1.42678 12.4874 1.42678 12.7803 1.71967Z" fill="#B2DB11"/>
<path fill-rule="evenodd" clip-rule="evenodd" d="M2.875 2.25C2.25368 2.25 1.75 2.75368 1.75 3.375C1.75 3.99632 2.25368 4.5 2.875 4.5C3.49632 4.5 4 3.99632 4 3.375C4 2.75368 3.49632 2.25 2.875 2.25ZM0.25 3.375C0.25 1.92525 1.42525 0.75 2.875 0.75C4.32475 0.75 5.5 1.92525 5.5 3.375C5.5 4.82475 4.32475 6 2.875 6C1.42525 6 0.25 4.82475 0.25 3.375Z" fill="#B2DB11"/>
<path fill-rule="evenodd" clip-rule="evenodd" d="M11.125 10.5C10.5037 10.5 10 11.0037 10 11.625C10 12.2463 10.5037 12.75 11.125 12.75C11.7463 12.75 12.25 12.2463 12.25 11.625C12.25 11.0037 11.7463 10.5 11.125 10.5ZM8.5 11.625C8.5 10.1753 9.67525 9 11.125 9C12.5747 9 13.75 10.1753 13.75 11.625C13.75 13.0747 12.5747 14.25 11.125 14.25C9.67525 14.25 8.5 13.0747 8.5 11.625Z" fill="#B2DB11"/>
</svg>
