<svg width="18" height="18" viewBox="0 0 18 18" fill="none" xmlns="http://www.w3.org/2000/svg">
<path fill-rule="evenodd" clip-rule="evenodd" d="M7.56464 1.1954C7.68502 0.92455 7.95361 0.75 8.25 0.75C9.04565 0.75 9.80871 1.06607 10.3713 1.62868C10.9339 2.19129 11.25 2.95435 11.25 3.75V6H14.7412C15.0657 5.997 15.3871 6.06425 15.6833 6.19717C15.9808 6.33072 16.2458 6.52737 16.4598 6.7735C16.6739 7.01963 16.8318 7.30935 16.9228 7.62258C17.0137 7.93582 17.0355 8.26508 16.9865 8.58755L15.9515 15.3375C15.9515 15.3376 15.9516 15.3373 15.9515 15.3375C15.87 15.8737 15.5975 16.3631 15.1842 16.7145C14.7719 17.0649 14.2471 17.255 13.7061 17.25H3C2.40326 17.25 1.83097 17.0129 1.40901 16.591C0.987053 16.169 0.75 15.5967 0.75 15V9.75C0.75 9.15326 0.987053 8.58097 1.40901 8.15901C1.83097 7.73705 2.40326 7.5 3 7.5H4.7626L7.56464 1.1954ZM6 8.40916L8.70587 2.32095C8.93191 2.39306 9.13978 2.51846 9.31066 2.68934C9.59196 2.97064 9.75 3.35218 9.75 3.75V6.75C9.75 7.16421 10.0858 7.5 10.5 7.5H14.745L14.7535 7.49995C14.8622 7.49872 14.9699 7.52114 15.0691 7.56566C15.1683 7.61018 15.2566 7.67573 15.3279 7.75777C15.3993 7.83981 15.4519 7.93639 15.4822 8.0408C15.5125 8.14511 15.5198 8.25476 15.5035 8.36215C15.5036 8.36205 15.5035 8.36225 15.5035 8.36215L14.4685 15.1125C14.4414 15.2914 14.3505 15.4544 14.2127 15.5715C14.0749 15.6887 13.8994 15.7521 13.7185 15.75L6 15.75V8.40916ZM4.5 15.75V9H3C2.80109 9 2.61032 9.07902 2.46967 9.21967C2.32902 9.36032 2.25 9.55109 2.25 9.75V15C2.25 15.1989 2.32902 15.3897 2.46967 15.5303C2.61032 15.671 2.80109 15.75 3 15.75H4.5Z" fill="#B2DB11"/>
</svg>
