<svg width="151" height="44" viewBox="0 0 151 44" fill="none" xmlns="http://www.w3.org/2000/svg">
<path d="M145.681 44H5.67929C2.76358 44 0.4021 41.6717 0.4021 38.797V5.20302C0.4021 2.32829 2.76358 0 5.67929 0H145.681C148.597 0 150.959 2.32829 150.959 5.20302V38.797C150.959 41.6717 148.597 44 145.681 44Z" fill="black"/>
<path d="M34.0171 21.7624C33.993 18.2225 36.9569 16.4881 37.1015 16.4169C35.4147 13.9935 32.8123 13.6609 31.8725 13.6372C29.6797 13.3996 27.5592 14.9439 26.4266 14.9439C25.2941 14.9439 23.5591 13.6609 21.7037 13.7084C19.3181 13.756 17.0771 15.1102 15.8482 17.2246C13.318 21.5486 15.1975 27.892 17.6313 31.3607C18.8362 33.0713 20.2579 34.9719 22.1133 34.9007C23.9206 34.8294 24.5953 33.7603 26.7881 33.7603C28.9568 33.7603 29.5833 34.9007 31.487 34.8531C33.4388 34.8294 34.6677 33.1426 35.8244 31.4082C37.222 29.4601 37.7762 27.5119 37.8003 27.4169C37.8003 27.4169 34.0653 26.0151 34.0171 21.7624ZM30.4508 11.3326C31.4147 10.121 32.0894 8.50541 31.8966 6.84235C30.4749 6.91362 28.7158 7.81643 27.7038 8.98058C26.8122 10.0259 25.9929 11.7128 26.2098 13.3045C27.8002 13.4233 29.4387 12.5205 30.4508 11.3326Z" fill="white"/>
<path d="M60.2825 34.663H57.7524L56.3547 30.3628H51.5354L50.2101 34.663H47.7522L52.5234 20.028H55.4873L60.2825 34.663ZM55.9451 28.5572L54.6921 24.7321C54.5475 24.352 54.3065 23.4255 53.9451 21.9762H53.8969C53.7523 22.5939 53.5113 23.5205 53.1981 24.7321L51.9691 28.5572H55.9451ZM72.5478 29.2462C72.5478 31.0518 72.0417 32.4535 71.0538 33.4989C70.1622 34.4255 69.0778 34.9006 67.7525 34.9006C66.3308 34.9006 65.3187 34.4017 64.6922 33.4039V38.9395H62.3307V27.5594C62.3307 26.4427 62.3066 25.2786 62.2344 24.0907H64.3308L64.4753 25.7537H64.5235C65.3187 24.4946 66.5236 23.8531 68.1381 23.8531C69.3911 23.8531 70.4513 24.352 71.2947 25.3261C72.1381 26.3477 72.5478 27.6544 72.5478 29.2462ZM70.1381 29.3412C70.1381 28.3196 69.8971 27.4643 69.4393 26.7991C68.9333 26.1101 68.2344 25.7537 67.367 25.7537C66.7886 25.7537 66.2585 25.9438 65.7766 26.3239C65.2946 26.7041 64.9814 27.203 64.8368 27.8445C64.7645 28.082 64.7404 28.3196 64.7163 28.5572V30.3153C64.7163 31.0756 64.9573 31.7408 65.4392 32.2635C65.9212 32.7861 66.5477 33.0475 67.2947 33.0475C68.1863 33.0475 68.8851 32.7149 69.3911 32.0259C69.8971 31.3607 70.1381 30.4578 70.1381 29.3412ZM84.8853 29.2462C84.8853 31.0518 84.3793 32.4535 83.3913 33.4989C82.4997 34.4255 81.4154 34.9006 80.0901 34.9006C78.6683 34.9006 77.6563 34.4017 77.0298 33.4039V38.9395H74.6442V27.5594C74.6442 26.4427 74.6201 25.2786 74.5478 24.0907H76.6442L76.7888 25.7537H76.837C77.6322 24.4946 78.837 23.8531 80.4515 23.8531C81.7045 23.8531 82.7648 24.352 83.6082 25.3261C84.4516 26.3477 84.8853 27.6544 84.8853 29.2462ZM82.4515 29.3412C82.4515 28.3196 82.2106 27.4643 81.7527 26.7991C81.2467 26.1101 80.5479 25.7537 79.6804 25.7537C79.1021 25.7537 78.572 25.9438 78.09 26.3239C77.6081 26.7041 77.2948 27.203 77.1502 27.8445C77.078 28.1296 77.0298 28.3671 77.0298 28.5572V30.3153C77.0298 31.0756 77.2707 31.7408 77.7527 32.2635C78.2346 32.7861 78.8611 33.0475 79.6081 33.0475C80.4997 33.0475 81.1985 32.7149 81.7045 32.0259C82.2106 31.3607 82.4515 30.4578 82.4515 29.3412ZM98.6446 30.5529C98.6446 31.7883 98.2108 32.8099 97.3192 33.5939C96.3554 34.4492 95.0059 34.8769 93.271 34.8769C91.6806 34.8769 90.4035 34.568 89.4155 33.974L89.9697 32.0259C91.0059 32.6436 92.1625 32.9287 93.4156 32.9287C94.3071 32.9287 95.006 32.7386 95.512 32.3347C96.018 31.9309 96.259 31.4082 96.259 30.7429C96.259 30.149 96.0421 29.6501 95.6325 29.2462C95.2228 28.8423 94.5481 28.4622 93.5842 28.1058C90.9818 27.1555 89.6806 25.7537 89.6806 23.9006C89.6806 22.689 90.1384 21.7149 91.0541 20.9546C91.9698 20.1943 93.1987 19.8142 94.6927 19.8142C96.0421 19.8142 97.1747 20.0518 98.0662 20.5032L97.4638 22.4039C96.6204 21.9524 95.6807 21.7386 94.6204 21.7386C93.777 21.7386 93.1264 21.9524 92.6445 22.3563C92.2589 22.7127 92.042 23.1641 92.042 23.6868C92.042 24.257 92.2589 24.7559 92.7168 25.1123C93.1023 25.4686 93.8252 25.825 94.8855 26.2527C96.1626 26.7516 97.1024 27.3455 97.7048 28.0345C98.3554 28.6997 98.6446 29.5313 98.6446 30.5529ZM106.524 25.8725H103.898V31.0043C103.898 32.311 104.355 32.9524 105.295 32.9524C105.729 32.9524 106.066 32.9287 106.356 32.8337L106.428 34.6155C105.97 34.7818 105.343 34.8769 104.572 34.8769C103.633 34.8769 102.91 34.5918 102.38 34.0216C101.849 33.4514 101.584 32.501 101.584 31.1706V25.8488H100.018V24.0907H101.584V22.1663L103.922 21.4773V24.1144H106.548L106.524 25.8725ZM118.332 29.2937C118.332 30.9093 117.85 32.2397 116.91 33.2851C115.922 34.3542 114.621 34.9006 112.982 34.9006C111.416 34.9006 110.163 34.3779 109.223 33.3563C108.283 32.3347 107.825 31.028 107.825 29.46C107.825 27.8207 108.307 26.4902 109.271 25.4449C110.235 24.3995 111.536 23.8769 113.151 23.8769C114.717 23.8769 115.994 24.3995 116.934 25.4211C117.874 26.419 118.332 27.7257 118.332 29.2937ZM115.874 29.3412C115.874 28.3671 115.657 27.5356 115.247 26.8466C114.741 26.0151 114.042 25.5874 113.103 25.5874C112.139 25.5874 111.416 26.0151 110.91 26.8466C110.476 27.5356 110.283 28.3909 110.283 29.3887C110.283 30.3628 110.5 31.1943 110.91 31.8833C111.416 32.7149 112.139 33.1425 113.079 33.1425C113.994 33.1425 114.693 32.7149 115.223 31.8596C115.657 31.1468 115.874 30.3153 115.874 29.3412ZM126.067 26.1576C125.826 26.1101 125.561 26.0864 125.32 26.0864C124.476 26.0864 123.826 26.3952 123.392 27.0129C123.006 27.5594 122.79 28.2483 122.79 29.1036V34.6393H120.404V27.4168C120.404 26.3002 120.38 25.2073 120.332 24.0907H122.404L122.5 26.1101H122.573C122.814 25.4211 123.223 24.8509 123.753 24.4471C124.259 24.0907 124.862 23.8769 125.464 23.8769C125.681 23.8769 125.874 23.9006 126.067 23.9244V26.1576ZM136.717 28.8898C136.717 29.2462 136.693 29.6026 136.621 29.9589H129.488C129.513 31.0043 129.85 31.8121 130.525 32.3585C131.127 32.8574 131.898 33.095 132.862 33.095C133.922 33.095 134.886 32.9287 135.754 32.5961L136.115 34.2116C135.103 34.6393 133.898 34.8531 132.525 34.8531C130.862 34.8531 129.561 34.3779 128.621 33.4039C127.681 32.4298 127.199 31.1468 127.199 29.5313C127.199 27.9395 127.633 26.609 128.525 25.5637C129.44 24.4233 130.693 23.8769 132.26 23.8769C133.802 23.8769 134.982 24.4471 135.754 25.5637C136.404 26.4665 136.717 27.5594 136.717 28.8898ZM134.452 28.2721C134.476 27.5831 134.308 26.9654 133.995 26.4665C133.585 25.8013 132.958 25.4924 132.091 25.4924C131.32 25.4924 130.669 25.8013 130.187 26.4427C129.802 26.9417 129.561 27.5594 129.488 28.2721H134.452ZM50.8607 14.8488C50.2101 14.8488 49.6317 14.825 49.1498 14.7537V7.67383C49.8245 7.5788 50.4992 7.53128 51.1739 7.53128C53.8969 7.53128 55.1499 8.86174 55.1499 11.0237C55.1499 13.4946 53.6559 14.8488 50.8607 14.8488ZM51.2462 8.43409C50.8848 8.43409 50.5715 8.45785 50.3065 8.50536V13.8747C50.451 13.8985 50.7161 13.8985 51.1016 13.8985C52.8848 13.8985 53.8969 12.9006 53.8969 11.0237C53.8969 9.36066 52.9812 8.43409 51.2462 8.43409ZM59.0536 14.8963C57.5114 14.8963 56.5234 13.7559 56.5234 12.2354C56.5234 10.6436 57.5355 9.50321 59.15 9.50321C60.6681 9.50321 61.6801 10.5723 61.6801 12.1641C61.6801 13.7559 60.6199 14.8963 59.0536 14.8963ZM59.1018 10.3347C58.2584 10.3347 57.7042 11.1188 57.7042 12.2116C57.7042 13.2807 58.2584 14.0648 59.0777 14.0648C59.897 14.0648 60.4512 13.2332 60.4512 12.1879C60.4753 11.1188 59.9211 10.3347 59.1018 10.3347ZM70.4513 9.59824L68.8128 14.7775H67.7284L67.0537 12.5205C66.885 11.974 66.7404 11.4039 66.62 10.8337H66.5959C66.4995 11.4039 66.3549 11.974 66.1621 12.5205L65.4392 14.7775H64.3549L62.8127 9.59824H64.0175L64.6199 12.0691C64.7645 12.663 64.885 13.2095 64.9814 13.7321H65.0055C65.1019 13.3045 65.2223 12.7581 65.4392 12.0691L66.1862 9.59824H67.1501L67.873 12.0216C68.0417 12.6155 68.1862 13.1857 68.3067 13.7321H68.3308C68.4031 13.2095 68.5236 12.6393 68.6923 12.0216L69.3429 9.59824H70.4513ZM76.4996 14.7775H75.343V11.8077C75.343 10.8812 74.9815 10.4298 74.2827 10.4298C73.5839 10.4298 73.102 11.0237 73.102 11.689V14.7775H71.9212V11.0712C71.9212 10.6198 71.9213 10.1209 71.8731 9.59824H72.9092L72.9574 10.406H72.9815C73.2948 9.85958 73.9454 9.50321 74.6442 9.50321C75.7526 9.50321 76.4755 10.3347 76.4755 11.689L76.4996 14.7775ZM79.7286 14.7775H78.5479V7.19867H79.7286V14.7775ZM83.9937 14.8963C82.4515 14.8963 81.4636 13.7559 81.4636 12.2354C81.4636 10.6436 82.4756 9.50321 84.0901 9.50321C85.6082 9.50321 86.6203 10.5723 86.6203 12.1641C86.6203 13.7559 85.56 14.8963 83.9937 14.8963ZM84.0419 10.3347C83.1985 10.3347 82.6443 11.1188 82.6443 12.2116C82.6443 13.2807 83.1985 14.0648 84.0178 14.0648C84.8371 14.0648 85.3913 13.2332 85.3913 12.1879C85.3913 11.1188 84.8612 10.3347 84.0419 10.3347ZM91.2228 14.7775L91.1264 14.1836H91.1023C90.7408 14.6587 90.2348 14.8963 89.5601 14.8963C88.6203 14.8963 87.9456 14.2548 87.9456 13.3758C87.9456 12.0928 89.0781 11.4276 91.03 11.4276V11.3326C91.03 10.6436 90.6685 10.311 89.9456 10.311C89.4155 10.311 88.9818 10.4298 88.5721 10.6911L88.3311 9.93085C88.8131 9.622 89.4155 9.47945 90.1384 9.47945C91.5119 9.47945 92.2107 10.1922 92.2107 11.6177V13.5183C92.2107 14.041 92.2348 14.4449 92.283 14.7537L91.2228 14.7775ZM91.0541 12.1879C89.7529 12.1879 89.1022 12.4967 89.1022 13.2332C89.1022 13.7797 89.4396 14.041 89.8974 14.041C90.4999 14.041 91.0541 13.5896 91.0541 12.9956V12.1879ZM97.8735 14.7775L97.8253 13.946H97.8012C97.4638 14.5637 96.9096 14.8963 96.1144 14.8963C94.8373 14.8963 93.8975 13.8034 93.8975 12.2591C93.8975 10.6436 94.8614 9.50321 96.2108 9.50321C96.9096 9.50321 97.4156 9.74079 97.7048 10.2159H97.7289V7.19867H98.9096V13.3758C98.9096 13.8747 98.9337 14.3499 98.9578 14.7775H97.8735ZM97.7048 11.7365C97.7048 11 97.2229 10.3823 96.4759 10.3823C95.6084 10.3823 95.0782 11.1425 95.0782 12.2116C95.0782 13.257 95.6325 13.9697 96.4518 13.9697C97.1988 13.9697 97.7048 13.3283 97.7048 12.5918V11.7365ZM106.307 14.8963C104.765 14.8963 103.777 13.7559 103.777 12.2354C103.777 10.6436 104.789 9.50321 106.404 9.50321C107.922 9.50321 108.934 10.5723 108.934 12.1641C108.934 13.7559 107.874 14.8963 106.307 14.8963ZM106.356 10.3347C105.512 10.3347 104.982 11.1188 104.982 12.2116C104.982 13.2807 105.536 14.0648 106.356 14.0648C107.175 14.0648 107.729 13.2332 107.729 12.1879C107.705 11.1188 107.175 10.3347 106.356 10.3347ZM115.223 14.7775H114.042V11.8077C114.042 10.8812 113.681 10.4298 112.982 10.4298C112.283 10.4298 111.825 11.0237 111.825 11.689V14.7775H110.645V11.0712C110.645 10.6198 110.645 10.1209 110.597 9.59824H111.633L111.681 10.406H111.705C112.018 9.85958 112.669 9.50321 113.368 9.50321C114.476 9.50321 115.199 10.3347 115.199 11.689V14.7775H115.223ZM123.079 10.4535H121.802V12.9719C121.802 13.6134 122.018 13.9222 122.476 13.9222C122.693 13.9222 122.862 13.8985 123.006 13.8747L123.03 14.7537C122.814 14.8488 122.5 14.8725 122.115 14.8725C121.199 14.8725 120.645 14.3736 120.645 13.0669V10.4535H119.874V9.59824H120.645V8.64791L121.802 8.3153V9.59824H123.079V10.4535ZM129.272 14.7775H128.115V11.8315C128.115 10.9049 127.753 10.4298 127.055 10.4298C126.452 10.4298 125.874 10.8337 125.874 11.6652V14.8013H124.717V7.19867H125.874V10.311H125.898C126.259 9.74079 126.79 9.45569 127.488 9.45569C128.597 9.45569 129.272 10.311 129.272 11.6652V14.7775ZM135.609 12.473H132.091C132.115 13.447 132.766 14.0172 133.754 14.0172C134.284 14.0172 134.742 13.9222 135.175 13.7797L135.368 14.5874C134.862 14.8013 134.284 14.8963 133.609 14.8963C131.97 14.8963 130.982 13.8747 130.982 12.2829C130.982 10.6911 131.97 9.50321 133.464 9.50321C134.814 9.50321 135.657 10.4773 135.657 11.974C135.657 12.1166 135.657 12.2829 135.609 12.473ZM134.549 11.6414C134.549 10.8337 134.139 10.2635 133.392 10.2635C132.717 10.2635 132.187 10.8337 132.115 11.6414H134.549Z" fill="white"/>
</svg>
