<svg width="16" height="16" fill="none" xmlns="http://www.w3.org/2000/svg"><path fill-rule="evenodd" clip-rule="evenodd" d="M8.262 2a5.997 5.997 0 0 0-5.995 6c0 3.314 2.684 6 5.995 6a5.997 5.997 0 0 0 5.995-6c0-3.314-2.684-6-5.995-6zM.935 8A7.33 7.33 0 0 1 8.262.667 7.33 7.33 0 0 1 15.589 8a7.33 7.33 0 0 1-7.327 7.333A7.33 7.33 0 0 1 .935 8z" fill="#7B7B7B"/><path fill-rule="evenodd" clip-rule="evenodd" d="M8.262 3.333c.368 0 .666.299.666.667v3.588l2.296 1.149a.667.667 0 0 1-.595 1.193L7.964 8.596A.667.667 0 0 1 7.596 8V4c0-.368.298-.667.666-.667z" fill="#7B7B7B"/></svg>