<svg width="17" height="16" fill="none" xmlns="http://www.w3.org/2000/svg"><g clip-path="url(#clip0)" fill-rule="evenodd" clip-rule="evenodd" fill="#7B7B7B"><path d="M4.786 14a1.333 1.333 0 1 1 2.666-.001A1.333 1.333 0 0 1 4.786 14zm7.327 0a1.333 1.333 0 1 1 2.666-.001 1.333 1.333 0 0 1-2.666.001zM.123.667C.123.298.422 0 .79 0h2.664c.317 0 .59.224.653.536l.56 2.797h10.777a.666.666 0 0 1 .654.792l-1.066 5.598a2 2 0 0 1-1.992 1.61H6.577a1.997 1.997 0 0 1-1.991-1.61L3.473 4.16a.665.665 0 0 1-.011-.056l-.554-2.77H.79A.666.666 0 0 1 .123.667zm4.81 4l.96 4.796a.667.667 0 0 0 .666.537h6.5a.666.666 0 0 0 .665-.534l.915-4.8H4.933z"/></g><defs><clipPath id="clip0"><path d="M.123 0H16.11v16H.123V0z" fill="#fff"/></clipPath></defs></svg>